<svg xmlns="http://www.w3.org/2000/svg" width="72.954" height="78.847" viewBox="0 0 72.954 78.847"><g transform="translate(-47.983 -24)"><path d="M79.165,376H61.057a4.833,4.833,0,0,0-4.171,2.392l-.224.383a4.833,4.833,0,0,0,1.292,6.322,25.615,25.615,0,0,0,15.26,5.042H82a11.169,11.169,0,0,0,6.974-2.445Z" transform="translate(-6.651 -292.043)" fill="#29ab87"/><path d="M176.615,69.551V62.738L174.731,60.5a1.7,1.7,0,0,1-.1-2.07l1.889-2.714-.211-1.221a1.022,1.022,0,0,1,.72-1.155L187.2,50.366l-4.758,17.061-5.838,3.533.007-2.261" transform="translate(-104.826 -21.875)" fill="#fff"/><path d="M217.743,100.616h5.582A8.941,8.941,0,0,0,232,89.507a5.083,5.083,0,0,1,1.857-6.219l2.689-1.749L226.147,72l-7.382,11.583Z" transform="translate(-140.844 -39.824)" fill="#29ab87"/><path d="M148.245,280a5.9,5.9,0,0,0,1,4.973l2.4,3.2-11.211,8.176a34.994,34.994,0,0,1-6.053-13.627Z" transform="translate(-71.687 -212.395)" fill="#fff"/><path d="M181.137,288.176l1.633.273a13.026,13.026,0,0,1,9.509,7.023l1.121,2.243,16.352,5.451-1.094-2.188A36.378,36.378,0,0,1,205,288.328l-.7-6.965L209.753,280l10.372,23.519a7.38,7.38,0,0,1-7.162,10.347l-11.212-.623a43.053,43.053,0,0,1-29.616-14.176,34.844,34.844,0,0,1-2.208-2.715Z" transform="translate(-101.172 -212.395)" fill="#29ab87"/><path d="M351.831,201.715l-2.42-1.614a3.745,3.745,0,0,1-1.4-4.507l.984-1.915a13.315,13.315,0,0,0,1.473-6.088v-1.378a2.213,2.213,0,0,1,4.4-.364l2.417,14.5Z" transform="translate(-248.701 -132.747)" fill="#fff"/><path d="M130.353,429.632l-4.241.494H122.18a4.4,4.4,0,0,0-3.858,2.28l-.481.874a2.188,2.188,0,0,0,1.917,3.244h8.51a6.809,6.809,0,0,0,4.367-1.585,3.014,3.014,0,0,0-2.283-5.307Z" transform="translate(-57.733 -336.523)" fill="#fff"/><path d="M124.154,186.391a5.863,5.863,0,0,1-.985-3.252v-6.249l-4.929,3.834a8.809,8.809,0,0,0-1.639,12.24l1.117,1.49q.172,1.375.451,2.725l13.857-2.725L133.389,189h-4.357a5.863,5.863,0,0,1-4.878-2.611Z" transform="translate(-55.468 -126.847)" fill="#29ab87"/><path d="M195.084,46.989l-9.477-13.03a4.755,4.755,0,0,0-8.156.786l-7.39,15.835a8.516,8.516,0,0,1-2.489,3.121l-3.83,2.979v6.249a5.863,5.863,0,0,0,5.863,5.863h4.357l2.044-8.176a16.226,16.226,0,0,0,2.725-9v-1.9L182.82,42.9l6.813,6.813,4.088,5.451,4.384,3.287a1.022,1.022,0,0,0,1.562-.438l1.948-4.872a1.022,1.022,0,0,0-.31-1.178Z" transform="translate(-96.042 -6.638)" fill="#fff"/><path d="M109.893,67.2l-2.364-13a3.587,3.587,0,0,0-2.453-2.78l1.763-4.41a2.371,2.371,0,0,0-.725-2.748L100.036,39.4,90.668,26.519A6.115,6.115,0,0,0,80.46,27l-8.779,3.149a2.381,2.381,0,0,0-1.545,2.65l.125.722-1.57,2.255a3.071,3.071,0,0,0,.171,3.727l1.564,1.857V46.2l-3.562,2.77L61.936,52.8a10.172,10.172,0,0,0-1.893,14.133l.9,1.2c.112.826.253,1.655.421,2.47a36.641,36.641,0,0,0,4.82,11.988H54.406a6.217,6.217,0,0,0-5.348,3.067l-.224.383a6.187,6.187,0,0,0,1.657,8.1,26.886,26.886,0,0,0,8.01,4.077,3.542,3.542,0,0,0,3.523,3.14h8.51a8.187,8.187,0,0,0,5.241-1.9l.015-.013a12.589,12.589,0,0,0,6.655-2.195,44.768,44.768,0,0,0,18.057,4.955l11.212.623q.249.014.5.014a8.681,8.681,0,0,0,6.58-3,8.777,8.777,0,0,0,1.407-9.271Zm-5.045-12.513,2.164,11.9-3.628.907-1.919-1.279a2.381,2.381,0,0,1-.911-2.813l.952-1.852a14.743,14.743,0,0,0,1.624-6.711.866.866,0,0,1,1.717-.155ZM89.856,50.107A7.623,7.623,0,0,1,88.4,56.585a7.541,7.541,0,0,1-5.917,2.845H80.007l1.224-4.9a17.53,17.53,0,0,0,2.822-9.556V43.456l3-4.995L91.5,42.917a6.45,6.45,0,0,0-1.649,7.19ZM82.481,62.154a10.252,10.252,0,0,0,8.045-3.867,10.362,10.362,0,0,0,1.95-8.936,1.382,1.382,0,0,0-.068-.2,3.721,3.721,0,0,1,.9-4.183l3.285,4.38a1.368,1.368,0,0,0,.273.273l4.206,3.154a3.568,3.568,0,0,0-.663,2.072,12.008,12.008,0,0,1-1.322,5.465L98.1,62.224c-.02.038-.037.077-.053.117a5.106,5.106,0,0,0,1.91,6.146l1.884,1.256.632,6.324A37.6,37.6,0,0,0,105.9,88.441L93.2,84.205l-.869-1.738a14.432,14.432,0,0,0-10.5-7.758l-1.095-.182L78.654,71.76a4.522,4.522,0,0,1-.772-3.824l1.363-5.451.083-.33ZM70.928,37.333l1.889-2.714a1.363,1.363,0,0,0,.224-1.01l-.171-.992,5.922-2.124L73.152,42.58V40.863a1.363,1.363,0,0,0-.32-.878l-1.884-2.238A.341.341,0,0,1,70.928,37.333ZM69.064,50.708l3.3-2.57a9.923,9.923,0,0,0,2.887-3.62l7.389-15.834a3.393,3.393,0,0,1,5.819-.562l9.477,13.03a1.363,1.363,0,0,0,.251.263l6.024,4.819-1.69,4.224-3.872-2.9-3.971-5.295-.015-.017a1.421,1.421,0,0,0-.108-.125l0,0,0,0-.006-.006L87.742,35.3a1.363,1.363,0,0,0-2.132.262l-4.088,6.813a1.363,1.363,0,0,0-.194.7v1.9a14.818,14.818,0,0,1-2.5,8.245,1.363,1.363,0,0,0-.187.426l-1.786,7.143H73.564a4.5,4.5,0,0,1-4.5-4.5ZM63.6,67.435a1.36,1.36,0,0,0-.262-.649L62.223,65.3A7.447,7.447,0,0,1,63.609,54.95l2.73-2.123v3.463a7.226,7.226,0,0,0,7.226,7.226h2.612l-.73,2.918L63.79,68.727c-.071-.43-.133-.862-.187-1.291Zm.739,3.96,10.68-2.1a7.237,7.237,0,0,0,1.451,4.1l1.574,2.1-8.974,6.545A33.937,33.937,0,0,1,64.341,71.4ZM59.395,95.227l-.2.36a24.166,24.166,0,0,1-7.082-3.628,3.465,3.465,0,0,1-.928-4.539l.224-.383a3.482,3.482,0,0,1,3-1.717H68.074c.594.779,1.222,1.539,1.875,2.264a44.348,44.348,0,0,0,4.629,4.449,4.382,4.382,0,0,0-2.117-.277l-4.163.485H64.447a5.767,5.767,0,0,0-5.052,2.986Zm15.22,1.015a1.64,1.64,0,0,1-.587,1.129,5.457,5.457,0,0,1-3.493,1.268h-8.51a.826.826,0,0,1-.723-1.224l.482-.874a3.041,3.041,0,0,1,2.665-1.575h3.931a1.357,1.357,0,0,0,.158-.009l4.241-.494a1.652,1.652,0,0,1,1.838,1.779Zm2.709.288c0-.02,0-.04.006-.06a4.341,4.341,0,0,0-.8-2.906q1.54,1.139,3.178,2.144a9.879,9.879,0,0,1-2.388.822Zm39.413,1.525a5.981,5.981,0,0,1-4.872,2.056l-11.212-.623A42.01,42.01,0,0,1,82.98,94.455l-.008,0a41.509,41.509,0,0,1-11-8.69c-.444-.493-.876-1-1.292-1.524l9.622-7.018,1.068.178a11.7,11.7,0,0,1,8.514,6.289l1.121,2.243a1.363,1.363,0,0,0,.788.684l16.352,5.451a1.363,1.363,0,0,0,1.65-1.9l-1.094-2.188A34.889,34.889,0,0,1,105.183,75.8L104.6,70l3.194-.8,9.909,22.469a6.042,6.042,0,0,1-.969,6.38Z"/></g></svg>