<svg xmlns="http://www.w3.org/2000/svg" width="74.175" height="73.978" viewBox="0 0 74.175 73.978"><g transform="translate(-1.84 -2)"><path d="M62.8,14.5l-8.356-2.77A10.246,10.246,0,0,1,47.424,2H26.463a10.246,10.246,0,0,1-7.022,9.726L11.086,14.5a11.1,11.1,0,0,0-8.049,10.67V49.618c0,3.741-.766,8.184.726,11.686,1.778,4.172,7.25,8.167,10.6,11.32a25.812,25.812,0,0,0-.229,3.354H70.85V25.166A11.1,11.1,0,0,0,62.8,14.5ZM20.55,53.935l-2.475,6.6A10.086,10.086,0,0,1,15.367,54V31.591L20.7,48.65a8.137,8.137,0,0,1-.148,5.284Z" transform="translate(0.233 0)" fill="#fff"/><path d="M65.673,58H34.849a1.849,1.849,0,1,0,0,3.7H65.673a1.849,1.849,0,1,0,0-3.7Z" transform="translate(7.259 13.046)" fill="#29ab87"/><path d="M63.125,49.518a13.559,13.559,0,0,0-11.1-13.328v3.465A1.233,1.233,0,0,1,50.8,40.888H48.33A1.233,1.233,0,0,1,47.1,39.655V36.19A13.558,13.558,0,0,0,36,49.518V63.081H63.125Z" transform="translate(7.958 7.965)" fill="#29ab87"/><path d="M49.932,37.166V32H45v5.166a13.1,13.1,0,0,1,4.932,0Z" transform="translate(10.055 6.989)" fill="#fff"/><path d="M46.233,40.932H48.7A1.233,1.233,0,0,0,49.932,39.7V36.234a13.1,13.1,0,0,0-4.932,0V39.7A1.233,1.233,0,0,0,46.233,40.932Z" transform="translate(10.055 7.921)" fill="#fff"/><g transform="translate(22.998 22.96)"><circle cx="5" cy="5" r="5" transform="translate(0.002 0.04)" fill="#29ab87"/><circle cx="5" cy="5" r="5" transform="translate(1.002 18.04)" fill="#29ab87"/><circle cx="5" cy="5" r="5" transform="translate(0.002 37.04)" fill="#29ab87"/></g><path d="M54.233,53.631A1.233,1.233,0,0,1,53,52.4V46.233a1.233,1.233,0,1,1,2.466,0V52.4A1.233,1.233,0,0,1,54.233,53.631Z" transform="translate(11.918 10.017)" fill="#fff"/><circle cx="1" cy="1" r="1" transform="translate(65 65)" fill="#fff"/><path d="M10.626,70.607c.968.829,1.874,1.611,2.682,2.373a28.525,28.525,0,0,0-.174,3H15.6a25.864,25.864,0,0,1,1.653-9.117l4.685-12.492a9.418,9.418,0,0,0,.17-6.086L16.777,31.224a1.233,1.233,0,0,0-2.41.367V54a9.584,9.584,0,0,0,2.6,6.6L14.944,66a28.437,28.437,0,0,0-1.165,4.075c-.5-.438-1.016-.882-1.549-1.338-2.751-2.355-5.868-5.023-7.1-7.912-1.01-2.371-.866-5.358-.725-8.248.049-1.012.1-2,.1-2.954V25.166a9.925,9.925,0,0,1,7.2-9.5l8.357-2.77A11.46,11.46,0,0,0,27.929,2H25.464a9,9,0,0,1-6.177,8.556L10.979,13.31A12.383,12.383,0,0,0,2.037,25.166V49.619c0,.911-.047,1.864-.094,2.835-.154,3.167-.313,6.443.92,9.335,1.457,3.419,4.807,6.287,7.763,8.818ZM16.833,54V39.671l2.921,9.348a6.934,6.934,0,0,1-.126,4.484L17.981,57.9A7.142,7.142,0,0,1,16.833,54Z" transform="translate(0)"/><path d="M63.892,45.154V25.166A12.365,12.365,0,0,0,55,13.326l-8.356-2.77A9,9,0,0,1,40.466,2H38a11.46,11.46,0,0,0,7.868,10.9l8.405,2.785a9.906,9.906,0,0,1,7.154,9.485V45.154Z" transform="translate(8.424 0)"/><path d="M32.283,37.812A52.409,52.409,0,0,1,31.07,21.441l.526-6.319-2.457-.2-.526,6.319a54.852,54.852,0,0,0,1.27,17.141,52.678,52.678,0,0,1-.171,24.737l-.54,2.158,2.392.6.54-2.158a55.166,55.166,0,0,0,.18-25.9Z" transform="translate(6.193 3.009)"/><path d="M65.906,63.523H65.29V51.193a14.808,14.808,0,0,0-11.1-14.308V32.7a1.233,1.233,0,0,0-1.233-1.233H51.727V29H49.261v2.466H48.028A1.233,1.233,0,0,0,46.8,32.7v4.186A14.808,14.808,0,0,0,35.7,51.193v12.33h-.616a3.082,3.082,0,1,0,0,6.165H65.906a3.082,3.082,0,0,0,0-6.165ZM49.261,33.932h2.466v2.529c-.407-.035-.816-.063-1.233-.063s-.825.028-1.233.063Zm2.467,7.4H49.261v-2.4a12.338,12.338,0,0,1,1.233-.063c.417,0,.829.022,1.234.063ZM38.165,51.193A12.35,12.35,0,0,1,46.8,39.432v1.9A2.468,2.468,0,0,0,49.261,43.8h2.466a2.468,2.468,0,0,0,2.466-2.466v-1.9a12.35,12.35,0,0,1,8.631,11.761v12.33H38.165ZM65.906,67.222H35.082a.616.616,0,0,1,0-1.233H65.906a.616.616,0,0,1,0,1.233Z" transform="translate(7.026 6.29)"/><path d="M18,23.557a6.2,6.2,0,0,0,.247,1.736l2.367-.693a3.721,3.721,0,0,1,.3-2.815L18.753,20.6A6.177,6.177,0,0,0,18,23.557Z" transform="translate(3.765 4.334)"/><path d="M23.191,18.013a6.18,6.18,0,0,0-2.895.963l1.335,2.074a3.684,3.684,0,0,1,1.735-.577Z" transform="translate(4.3 3.73)"/><path d="M24.161,28.5a6.181,6.181,0,0,0,2.727-1.365l-1.615-1.864a3.708,3.708,0,0,1-1.635.82Z" transform="translate(5.078 5.42)"/><path d="M25.273,18.452l-1.026,2.242a3.719,3.719,0,0,1,1.425,1.15l1.974-1.48A6.2,6.2,0,0,0,25.273,18.452Z" transform="translate(5.22 3.833)"/><path d="M26.006,22.636a3.775,3.775,0,0,1,.038.529,3.687,3.687,0,0,1-.232,1.293l2.311.862a6.163,6.163,0,0,0,.387-2.158,6.349,6.349,0,0,0-.062-.872Z" transform="translate(5.585 4.727)"/><path d="M19.464,26.864a6.185,6.185,0,0,0,2.623,1.558l.694-2.366a3.7,3.7,0,0,1-1.571-.935Z" transform="translate(4.106 5.386)"/><path d="M26.273,40.268a3.708,3.708,0,0,1-1.635.82l.523,2.409a6.181,6.181,0,0,0,2.727-1.365Z" transform="translate(5.311 8.915)"/><path d="M29.51,38.163a6.349,6.349,0,0,0-.062-.872l-2.441.345a3.971,3.971,0,0,1,.037.529,3.687,3.687,0,0,1-.232,1.293l2.311.862A6.163,6.163,0,0,0,29.51,38.163Z" transform="translate(5.818 8.221)"/><path d="M22.209,40.122l-1.745,1.742a6.185,6.185,0,0,0,2.623,1.558l.694-2.366a3.713,3.713,0,0,1-1.572-.935Z" transform="translate(4.339 8.881)"/><path d="M24.191,33.013a6.18,6.18,0,0,0-2.895.963l1.335,2.074a3.684,3.684,0,0,1,1.735-.577Z" transform="translate(4.533 7.225)"/><path d="M26.273,33.452l-1.026,2.242a3.719,3.719,0,0,1,1.425,1.15l1.974-1.48A6.2,6.2,0,0,0,26.273,33.452Z" transform="translate(5.453 7.327)"/><path d="M21.614,39.6a3.721,3.721,0,0,1,.3-2.815L19.753,35.6a6.192,6.192,0,0,0-.507,4.69Z" transform="translate(3.998 7.828)"/><path d="M26.887,57.132l-1.615-1.864a3.708,3.708,0,0,1-1.635.82L24.16,58.5A6.162,6.162,0,0,0,26.887,57.132Z" transform="translate(5.078 12.409)"/><path d="M28.123,55.322a6.175,6.175,0,0,0,.387-2.159,6.349,6.349,0,0,0-.062-.872l-2.441.345a3.971,3.971,0,0,1,.037.529,3.687,3.687,0,0,1-.232,1.293Z" transform="translate(5.585 11.716)"/><path d="M25.672,51.844l1.974-1.48a6.192,6.192,0,0,0-2.373-1.912l-1.026,2.242A3.73,3.73,0,0,1,25.672,51.844Z" transform="translate(5.22 10.821)"/><path d="M23.191,48.013a6.18,6.18,0,0,0-2.895.963l1.335,2.074a3.684,3.684,0,0,1,1.735-.577Z" transform="translate(4.3 10.719)"/><path d="M22.779,56.056a3.7,3.7,0,0,1-1.571-.935l-1.745,1.742a6.185,6.185,0,0,0,2.623,1.558Z" transform="translate(4.106 12.375)"/><path d="M18,53.557a6.2,6.2,0,0,0,.247,1.736l2.367-.693a3.721,3.721,0,0,1,.3-2.815L18.753,50.6A6.177,6.177,0,0,0,18,53.557Z" transform="translate(3.765 11.322)"/></g></svg>