<svg xmlns="http://www.w3.org/2000/svg" width="74.527" height="74.525" viewBox="0 0 74.527 74.525"><g transform="translate(0 -0.006)"><g transform="translate(1.092 1.096)"><g transform="translate(25.597)"><path d="M183.354,67l14.638,19c5.306-6.433,11.54-17.545,18.836-24.262q4.158-3.828,8.234-7.174L212.607,42.111q-3.366,4.143-7.258,8.407C198.653,57.823,189.736,61.809,183.354,67Z" transform="translate(-183.354 -37.072)" fill="#fff"/><path d="M285.751,42.111q-.966,1.189-1.977,2.39l2.242,2.242a10.335,10.335,0,0,1-.329,14.92l-.083.077c-6.316,5.815-11.835,14.92-16.646,21.436L271.135,86c5.306-6.433,11.54-17.545,18.836-24.262q4.158-3.828,8.234-7.174Z" transform="translate(-256.497 -37.072)" fill="#fff"/><path d="M375.93,11.967l13.586,13.586a2.62,2.62,0,1,0,3.705-3.705L379.635,8.262a2.62,2.62,0,1,0-3.705,3.705Z" transform="translate(-347.242 -7.494)" fill="#29ab87"/></g><g transform="translate(19.651 11.479)"><path d="M164.7,87a1.43,1.43,0,0,1,.991.991,17.492,17.492,0,0,1-22.317,21.327A17.492,17.492,0,0,1,164.7,87Z" transform="translate(-142.5 -86.352)" fill="#29ab87"/><path d="M190.206,87.995a1.433,1.433,0,0,0-.994-.991,17.574,17.574,0,0,0-6.9-.506l.033,0a4.649,4.649,0,0,1,4.006,4.05,17.486,17.486,0,0,1-15.162,19.508,17.487,17.487,0,0,0,19.017-22.065Z" transform="translate(-167.013 -86.359)" fill="#29ab87"/></g><g transform="translate(0 11.479)"><path d="M9.136,87a1.43,1.43,0,0,0-.991.991,17.492,17.492,0,0,0,22.317,21.327A17.492,17.492,0,0,0,9.136,87Z" transform="translate(-7.5 -86.352)" fill="#29ab87"/><path d="M50.708,91.486A17.453,17.453,0,0,0,36.163,86.5a17.488,17.488,0,0,1,14.423,22.824,17.486,17.486,0,0,1-3.3.738,17.565,17.565,0,0,0,7.667-.738A17.486,17.486,0,0,0,50.708,91.486Z" transform="translate(-31.991 -86.364)" fill="#29ab87"/></g><path d="M174.867,458.354h16.157a4.367,4.367,0,0,0,4.367-4.367v-3.493H170.5v3.493A4.367,4.367,0,0,0,174.867,458.354Z" transform="translate(-146.774 -386.011)" fill="#29ab87"/><path d="M285.867,450.494v3.493a4.367,4.367,0,0,1-4.367,4.367h4.367a4.367,4.367,0,0,0,4.367-4.367v-3.493Z" transform="translate(-241.616 -386.011)" fill="#544f56"/><path d="M55.473,282.644H70.32a25.473,25.473,0,0,0,25.473-25.473v-5.677H30v5.677A25.473,25.473,0,0,0,55.473,282.644Z" transform="translate(-26.725 -215.977)" fill="#fff"/><path d="M302.473,251.494v5.677A25.473,25.473,0,0,1,277,282.644h4.367a25.473,25.473,0,0,0,25.473-25.473v-5.677Z" transform="translate(-237.771 -215.977)" fill="#29ab87"/><path d="M10.848,227.19H76.5a3.348,3.348,0,1,0,0-6.7H10.848a3.348,3.348,0,1,0,0,6.7Z" transform="translate(-7.5 -189.49)" fill="#29ab87"/><path d="M455.867,220.494H451.5a3.348,3.348,0,0,1,0,6.7h4.367a3.348,3.348,0,0,0,0-6.7Z" transform="translate(-386.871 -189.49)" fill="#29ab87"/></g><path d="M70.087,31.009H56.7a49.184,49.184,0,0,1,4.2-4.443c2.419-2.227,4.915-4.412,7.429-6.5a3.712,3.712,0,0,0,5.108-5.383L59.853,1.092A3.712,3.712,0,0,0,54.474,6.2c-2.117,2.578-4.332,5.131-6.6,7.6-.751.819-1.548,1.615-2.408,2.406a18.574,18.574,0,0,0-.484-2.294,2.534,2.534,0,0,0-1.749-1.747A18.636,18.636,0,0,0,25.2,16.811a1.092,1.092,0,1,0,1.531,1.557,16.447,16.447,0,0,1,15.915-4.1.341.341,0,0,1,.233.232,16.428,16.428,0,0,1-4.71,16.506H28.044l8-7.5a1.092,1.092,0,1,0-1.493-1.593l-8.526,7.994a18.467,18.467,0,0,0-5.44-12.989A18.621,18.621,0,0,0,2.434,12.168a2.533,2.533,0,0,0-1.75,1.748A18.624,18.624,0,0,0,4.467,31.009H4.44a4.439,4.439,0,0,0-1.164,8.723V42.29A26.611,26.611,0,0,0,23.726,68.143v.93a5.465,5.465,0,0,0,5.459,5.459H45.342A5.465,5.465,0,0,0,50.8,69.073v-.924a26.443,26.443,0,0,0,14.709-9.361A1.092,1.092,0,0,0,63.8,57.431a24.265,24.265,0,0,1-14.252,8.757q-.051.008-.1.02a24.612,24.612,0,0,1-4.759.463H29.84A24.409,24.409,0,0,1,5.459,42.29v-2.4h63.61v2.4A24.118,24.118,0,0,1,66.42,53.353a1.092,1.092,0,1,0,1.945.992A26.282,26.282,0,0,0,71.252,42.29V39.732a4.439,4.439,0,0,0-1.164-8.723ZM25.91,68.564a26.675,26.675,0,0,0,3.93.291H44.687a26.9,26.9,0,0,0,3.93-.289v.508a3.279,3.279,0,0,1-3.275,3.275H29.185a3.279,3.279,0,0,1-3.275-3.275ZM56.148,2.636a1.53,1.53,0,0,1,2.162,0L71.9,16.222a1.528,1.528,0,0,1-2.161,2.161L56.148,4.8A1.531,1.531,0,0,1,56.148,2.636ZM45.668,18.951a43.427,43.427,0,0,0,3.821-3.671c2.24-2.444,4.434-4.969,6.534-7.52L66.777,18.514c-2.489,2.076-4.959,4.24-7.354,6.446a55.62,55.62,0,0,0-5.555,6.049H41.2a18.626,18.626,0,0,0,4.464-12.059ZM2.788,14.5a.338.338,0,0,1,.233-.232,16.434,16.434,0,0,1,16.016,4.2,16.3,16.3,0,0,1,4.774,12.541H20.82l-9.7-9.09a1.092,1.092,0,1,0-1.493,1.593l8,7.5H7.5A16.435,16.435,0,0,1,2.788,14.5Zm67.3,23.2H4.44a2.256,2.256,0,0,1,0-4.512H70.087a2.256,2.256,0,1,1,0,4.512ZM11.411,44.49a1.092,1.092,0,0,0-2.168.257,20.742,20.742,0,0,0,20.6,18.285,1.092,1.092,0,1,0,0-2.183A18.558,18.558,0,0,1,11.411,44.49Z"/></g></svg>