<svg xmlns="http://www.w3.org/2000/svg" width="72.569" height="77.97" viewBox="0 0 72.569 77.97"><g transform="translate(-17.736)"><path d="M228.049,15.643H215.807V13.621a6.121,6.121,0,1,1,12.242,0Z" transform="translate(-167.908 -6.358)" fill="#fff"/><path d="M166.008,63.447H126.6V55.329A17.828,17.828,0,0,1,144.424,37.5h3.756a17.828,17.828,0,0,1,17.829,17.829Z" transform="translate(-92.281 -31.789)" fill="#626262"/><g transform="translate(29.649 41.05)"><path d="M143.285,305.34h-45.9a1.421,1.421,0,0,1-1.421-1.421V288.59a19.027,19.027,0,0,1,19.027-19.027h10.687a19.027,19.027,0,0,1,19.027,19.027v15.329A1.421,1.421,0,0,1,143.285,305.34Z" transform="translate(-95.964 -269.562)" fill="#29ab87"/><path d="M201.892,290.567l9.72-14.963h-19.44Z" transform="translate(-177.521 -274.684)" fill="#fff"/></g><g transform="translate(38.479 16.991)"><path d="M181.54,136.669l-10.458,3.447a5.082,5.082,0,0,1-3.182,0l-10.458-3.447a5.083,5.083,0,0,1-3.491-4.827V116.781c5.7.156,10.467-1.08,13.691-4.594a1.918,1.918,0,0,1,3,.237c2.284,3.3,7.427,4.5,14.393,4.357v15.061A5.083,5.083,0,0,1,181.54,136.669Z" transform="translate(-153.95 -111.574)" fill="#fff"/><g transform="translate(11.816 5.095)"><path d="M246.439,145.031V159.29a5.083,5.083,0,0,1-3.491,4.827l-10.458,3.447a5.072,5.072,0,0,1-.946.21l2.133.7a5.083,5.083,0,0,0,3.182,0l10.459-3.447a5.083,5.083,0,0,0,3.491-4.827V145.143A43.418,43.418,0,0,1,246.439,145.031Z" transform="translate(-231.544 -145.031)" fill="#fff"/></g></g><path d="M121.167,185.535H119.8a4.527,4.527,0,0,1-4.527-4.527,3.019,3.019,0,0,1,3.019-3.019h2.87v7.546Z" transform="translate(-82.688 -150.884)" fill="#fff"/><path d="M358.05,185.535h1.362a4.527,4.527,0,0,0,4.527-4.527,3.019,3.019,0,0,0-3.019-3.019h-2.87v7.546Z" transform="translate(-288.489 -150.884)" fill="#fff"/><g transform="translate(18.878 1.142)"><path d="M425.324,7.5V33.386a10.741,10.741,0,0,1-3.143,7.592l-3.764,3.768a1.966,1.966,0,0,1-2.792-2.769l3.346-3.4a2.828,2.828,0,0,0,.806-1.787l.8-11.417a.446.446,0,0,0-.857-.2l-2.5,6.093a1.524,1.524,0,0,1-2.934-.578V25.345a13.391,13.391,0,0,1,3.018-8.468,2.637,2.637,0,0,0,.594-1.668V7.5Z" transform="translate(-355.04 -7.5)" fill="#fff"/><g transform="translate(60.519)"><path d="M429.466,7.5V33.386a10.741,10.741,0,0,1-3.143,7.592l-3.681,3.683c.016.018.03.036.046.054a1.966,1.966,0,0,0,2.811.03l3.764-3.768a10.741,10.741,0,0,0,3.143-7.592V7.5Z" transform="translate(-422.643 -7.5)" fill="#fff"/></g><path d="M25.236,7.5V33.386a10.741,10.741,0,0,0,3.143,7.592l3.764,3.768a1.966,1.966,0,0,0,2.792-2.769l-3.346-3.4a2.828,2.828,0,0,1-.806-1.787l-.8-11.417a.446.446,0,0,1,.857-.2l2.5,6.093a1.524,1.524,0,0,0,2.933-.578V25.345a13.391,13.391,0,0,0-3.018-8.468,2.637,2.637,0,0,1-.594-1.668V7.5Z" transform="translate(-25.236 -7.5)" fill="#fff"/><g transform="translate(4.481)"><path d="M58.2,16.876a2.636,2.636,0,0,1-.594-1.668V7.5H54.66v7.708a2.636,2.636,0,0,0,.594,1.668,13.391,13.391,0,0,1,3.018,8.468v5.344a1.52,1.52,0,0,1-.058.41l.069.167a1.524,1.524,0,0,0,2.933-.578V25.344A13.391,13.391,0,0,0,58.2,16.876Z" transform="translate(-54.66 -7.5)" fill="#fff"/></g></g><g transform="translate(17.736)"><path d="M128.4,42.063c2.889-2.378,2.156-5.626,2.264-6.27h.22a5.676,5.676,0,0,0,5.669-5.669,4.158,4.158,0,0,0-1.723-3.369V23.539A19,19,0,0,0,120.96,5.267a7.262,7.262,0,0,0-13.964,0A19,19,0,0,0,93.129,23.539v3.216a4.157,4.157,0,0,0-1.723,3.369,5.675,5.675,0,0,0,5.669,5.669h.22v1.466a6.212,6.212,0,0,0,2.264,4.8A20.234,20.234,0,0,0,88.464,60.078V75.407a2.566,2.566,0,0,0,2.563,2.563h6.2a1.142,1.142,0,0,0,0-2.284h-6.2a.279.279,0,0,1-.279-.279V60.078a17.933,17.933,0,0,1,11.466-16.694l2.034.67,3.415,5.257a1.142,1.142,0,0,0,1.915-1.244l-1.864-2.87,4.314,1.422a6.267,6.267,0,0,0,3.9,0L120.24,45.2l-6.263,9.641L112.07,51.9a1.142,1.142,0,0,0-1.916,1.244l2.477,3.813c-1.326,2.283-5.623,10.3-5.9,18.727h-4.933a1.142,1.142,0,1,0,0,2.284h35.133a2.566,2.566,0,0,0,2.563-2.563V60.078A20.235,20.235,0,0,0,128.4,42.063Zm2.485-8.554h-.22V28.247h1.728a1.879,1.879,0,0,1,1.877,1.877,3.389,3.389,0,0,1-3.385,3.385Zm-16.9-31.225A4.97,4.97,0,0,1,118.26,4.72a19.049,19.049,0,0,0-2.4-.152H112.1a19.051,19.051,0,0,0-2.4.152A4.969,4.969,0,0,1,113.977,2.284ZM95.413,23.539A16.7,16.7,0,0,1,112.1,6.853h3.756a16.7,16.7,0,0,1,16.686,16.686v2.428c-.21-.008-.01,0-1.881,0V22.2a1.142,1.142,0,0,0-1.166-1.142c-7.038.144-11.556-1.154-13.43-3.865a3.088,3.088,0,0,0-2.336-1.335,3.016,3.016,0,0,0-2.442.976c-2.754,3-6.946,4.385-12.818,4.224A1.142,1.142,0,0,0,97.294,22.2v3.765c-1.872,0-1.672,0-1.881,0Zm1.661,9.97a3.389,3.389,0,0,1-3.385-3.385,1.879,1.879,0,0,1,1.877-1.877h1.728v5.262Zm18.137,10.94a3.97,3.97,0,0,1-2.467,0L102.285,41a3.933,3.933,0,0,1-2.707-3.742V23.353c5.969-.037,10.358-1.67,13.39-4.976a.741.741,0,0,1,.6-.242.815.815,0,0,1,.614.356c2.253,3.258,6.9,4.852,14.191,4.861V37.259A3.933,3.933,0,0,1,125.67,41Zm22,30.958a.279.279,0,0,1-.279.279H109.014c.335-9.011,5.754-17.859,5.926-18.138l8.766-13.494,2.034-.671a17.933,17.933,0,0,1,11.466,16.694Z" transform="translate(-77.693)"/><path d="M234.484,241.994a6.857,6.857,0,0,1-5.56,0,1.142,1.142,0,0,0-.884,2.106,9.157,9.157,0,0,0,7.328,0,1.142,1.142,0,1,0-.884-2.106Z" transform="translate(-195.419 -205.066)"/><path d="M418.966,0a1.142,1.142,0,0,0-1.142,1.142V27.028a9.537,9.537,0,0,1-2.809,6.785l-3.765,3.767a.824.824,0,0,1-1.17-1.16l3.347-3.4a3.974,3.974,0,0,0,1.131-2.509l.8-11.417a1.588,1.588,0,0,0-3.053-.713l-2.5,6.093a.382.382,0,0,1-.734-.145V18.986a12.283,12.283,0,0,1,2.76-7.746,3.789,3.789,0,0,0,.852-2.39V1.142a1.142,1.142,0,1,0-2.284,0V8.851a1.5,1.5,0,0,1-.337.945,14.573,14.573,0,0,0-3.275,9.191V24.33a2.666,2.666,0,0,0,5.133,1.011l.856-2.09-.5,7.1a1.689,1.689,0,0,1-.48,1.066l-3.346,3.4a3.108,3.108,0,0,0,4.414,4.377l3.765-3.767a11.805,11.805,0,0,0,3.477-8.4V1.142A1.142,1.142,0,0,0,418.966,0Z" transform="translate(-347.54)"/><path d="M29.391,34.818l-3.346-3.4a1.688,1.688,0,0,1-.481-1.066l-.5-7.1.856,2.09a2.666,2.666,0,0,0,5.132-1.011V18.987A14.574,14.574,0,0,0,27.782,9.8a1.5,1.5,0,0,1-.337-.945V1.142a1.142,1.142,0,1,0-2.284,0V8.851a3.789,3.789,0,0,0,.852,2.39,12.283,12.283,0,0,1,2.76,7.746V24.33a.382.382,0,0,1-.734.145l-2.5-6.093a1.588,1.588,0,0,0-3.053.713l.8,11.417a3.974,3.974,0,0,0,1.131,2.509l3.346,3.4a.824.824,0,0,1-1.17,1.16l-3.765-3.767a9.536,9.536,0,0,1-2.809-6.785V1.142a1.142,1.142,0,0,0-2.284,0V27.028a11.805,11.805,0,0,0,3.477,8.4l3.765,3.767a3.108,3.108,0,0,0,4.414-4.377Z" transform="translate(-17.736)"/><path d="M204.637,195.988a1.142,1.142,0,0,0-1.48-.647,2.1,2.1,0,0,1-1.739,0,1.142,1.142,0,1,0-.833,2.127,4.364,4.364,0,0,0,3.405,0,1.142,1.142,0,0,0,.647-1.48Z" transform="translate(-172.124 -165.527)"/><path d="M283.544,195.342a2.1,2.1,0,0,1-1.739,0,1.142,1.142,0,1,0-.833,2.127,4.364,4.364,0,0,0,3.405,0,1.142,1.142,0,0,0-.833-2.127Z" transform="translate(-240.27 -165.527)"/></g></g></svg>