<svg xmlns="http://www.w3.org/2000/svg" width="79.384" height="79.411" viewBox="0 0 79.384 79.411"><g transform="translate(-15.999 -15.836)"><circle cx="6.615" cy="6.615" r="6.615" transform="translate(37.168 17.186)" fill="#29ab87"/><path d="M115.39,220.958A10.669,10.669,0,0,0,106.314,216H68.173a10.659,10.659,0,0,0-9.19,5.145l-5.269,8.9.378,5.8h66.153v-7.081Z" transform="translate(-31.477 -167.06)" fill="#fff"/><path d="M86.5,301.229h18.771l7.938-2.7,30.43,2.7h2.783a6.614,6.614,0,0,0-.269-13.225L86.5,293.123Z" transform="translate(-58.841 -227.153)" fill="#fff"/><path d="M298.732,117.056l-1.048.493-3.943-8.387,1.048-.493a3.475,3.475,0,0,1,4.624,1.666l.986,2.1a3.475,3.475,0,0,1-1.667,4.624Z" transform="translate(-231.807 -77.204)" fill="#feb784"/><path d="M141.8,187.77l1.048-.493-3.943-8.387-1.048.493a3.475,3.475,0,0,0-1.666,4.624l.986,2.1A3.476,3.476,0,0,0,141.8,187.77Z" transform="translate(-100.041 -136.088)" fill="#fec093"/><path d="M169.167,84.8a22.87,22.87,0,0,0-1.429-13.007l-3.211-7.6a13.357,13.357,0,1,0-24.155,11.357l3.808,7.324a22.87,22.87,0,0,0,9.106,9.4,12.629,12.629,0,0,0,5.873,1.61,9.267,9.267,0,0,0,7.5-3.527A12.631,12.631,0,0,0,169.167,84.8Z" transform="translate(-102.547 -33.542)" fill="#ffd5b8"/><path d="M169.166,84.8a12.612,12.612,0,0,1-2.506,5.55,9.271,9.271,0,0,1-7.28,3.531c-.074,0-.147,0-.222,0a12.643,12.643,0,0,1-5.873-1.611,22.863,22.863,0,0,1-9.106-9.4l-3.756-7.222v0l-.053-.1a13.357,13.357,0,1,1,24.156-11.357l.06.141,3.152,7.464A22.871,22.871,0,0,1,169.166,84.8Z" transform="translate(-102.546 -33.542)" fill="#fec9a3"/><path d="M164.565,64.311a15.323,15.323,0,0,0-4.733-3.913,9.557,9.557,0,0,0-2.512-.845,9.959,9.959,0,0,0-2.547-.127,13.564,13.564,0,0,0-2.878.556,21.148,21.148,0,0,0-2.262.834c-.349.149-.7.311-1.063.483q-.687.331-1.316.678a19.289,19.289,0,0,0-2.466,1.606,13.974,13.974,0,0,0-1.985,1.852,11.049,11.049,0,0,0-1.23,1.7,10.223,10.223,0,0,0-1.045,2.439,13,13,0,0,0-.124,6.058l-.053-.1a13.29,13.29,0,0,1-1.51-6.149c0-.129,0-.258.007-.385a13.421,13.421,0,0,1,2.686-7.67,13.266,13.266,0,0,1,3.748-3.38,13.615,13.615,0,0,1,1.239-.663q.571-.268,1.151-.476a13.31,13.31,0,0,1,7.841-.379,13.5,13.5,0,0,1,2.618.972,13.323,13.323,0,0,1,6.377,6.774Z" transform="translate(-102.525 -33.527)" fill="#29ab87"/><path d="M30.15,287.875h4.434l25.138-9.26,18.523-2.646L72.953,272H58.4l-22.546,2.254a35.3,35.3,0,0,0-7.648,1.636,6.15,6.15,0,0,0,1.945,11.985Z" transform="translate(-6.677 -213.799)" fill="#fff"/><rect width="76.737" height="13.231" rx="6.615" transform="translate(17.323 74.078)" fill="#29ab87"/><path d="M105.593,446.225l-1.221.086.416,4.281a2.89,2.89,0,0,0,3.113,2.524,2.71,2.71,0,0,0,2.584-2.925A4.541,4.541,0,0,0,105.593,446.225Z" transform="translate(-73.757 -359.2)" fill="#29ab87"/><path d="M75.288,447.869,74.8,446.8,70.674,448.4a2.609,2.609,0,0,0-1.5,3.526,2.971,2.971,0,0,0,3.76,1.482A4.1,4.1,0,0,0,75.288,447.869Z" transform="translate(-44.189 -359.687)" fill="#29ab87"/><path d="M60.982,422.169a2.93,2.93,0,0,0-3.962-.277l-.042.035a2.543,2.543,0,0,0-.294,3.734l.141.154a4.6,4.6,0,0,0,6.226.436l.955-.775Z" transform="translate(-33.387 -338.366)" fill="#29ab87"/><path d="M89.237,400.406a2.927,2.927,0,0,0-3.921.873,4.164,4.164,0,0,0,1.571,5.851l1.054.611,2.3-3.612A2.651,2.651,0,0,0,89.237,400.406Z" transform="translate(-57.327 -320.63)" fill="#29ab87"/><path d="M110.015,420.536a4.421,4.421,0,0,0-5.375,3.113l-.269,1.126h0l1.217-.085a4.709,4.709,0,0,1,3.4,1.128,2.789,2.789,0,0,0,3.187-2.012A2.759,2.759,0,0,0,110.015,420.536Z" transform="translate(-73.757 -337.667)" fill="#29ab87"/><path d="M202.467,368H186.226c-10.845,6.939-24.784,10.969-35.583,13.231h51.824a3.969,3.969,0,0,0,3.969-3.969v-5.292A3.969,3.969,0,0,0,202.467,368Z" transform="translate(-112.376 -293.922)" fill="#29ab87"/><path d="M95.383,67.462a7.868,7.868,0,0,0-6.291-7.751L85.035,53.2a12.059,12.059,0,0,0-10.2-5.585H68.278a23.741,23.741,0,0,0-.777-6.578,4.8,4.8,0,0,0,2.286-6.371l-.99-2.1a4.787,4.787,0,0,0-5.661-2.553,14.581,14.581,0,0,0-5.652-6.6,14.236,14.236,0,0,0-5.577-2.078c-.194-.033-.42-.037-.625-.06a7.918,7.918,0,1,0-14.089,6.9,14.514,14.514,0,0,0-2.063,5.739A13.952,13.952,0,0,0,35,35.854a14.429,14.429,0,0,0,1.6,6.633,4.808,4.808,0,0,0-1.885,5.305,11.871,11.871,0,0,0-8.34,5.617l-4.232,7.115c-.344.1-.691.2-1.032.313a7.461,7.461,0,0,0-2.554,12.7A5.276,5.276,0,0,0,16,78.047v5.292a5.3,5.3,0,0,0,1.765,3.949l1.762-1.974a2.651,2.651,0,0,1-.881-1.974V78.047A2.65,2.65,0,0,1,21.292,75.4h68.8a2.65,2.65,0,0,1,2.646,2.646v5.292a2.65,2.65,0,0,1-2.646,2.646H42.461v2.646h47.63a5.3,5.3,0,0,0,5.292-5.292V78.047a5.274,5.274,0,0,0-2.705-4.589,7.971,7.971,0,0,0,2.705-6ZM82.789,54.6l3.155,5.063L72.039,60.87l-4.969-3.727a1.319,1.319,0,0,0-.794-.265h-.6A14.082,14.082,0,0,0,67.919,51.5c.076-.4.14-.815.193-1.239h6.724A9.4,9.4,0,0,1,82.789,54.6ZM66.4,33.693l.992,2.1a2.144,2.144,0,0,1-.72,2.666c-.093-.24-.165-.5-.266-.729L64.19,32.484A2.138,2.138,0,0,1,66.4,33.693ZM60.759,31.16l3.217,7.615a17.847,17.847,0,0,1,.707,1.935,21.227,21.227,0,0,1,.908,8.137,18.358,18.358,0,0,1-.273,2.169,11.5,11.5,0,0,1-2.234,4.972,7.878,7.878,0,0,1-.84.892L50.485,57a21.244,21.244,0,0,1-6.636-6.52,18.957,18.957,0,0,1-1.034-1.759L39,41.393a11.81,11.81,0,0,1-1.352-5.46l.958.345.9-2.488-1.551-.559a11.891,11.891,0,0,1,.8-2.373l2.977,1.985,1.468-2.2-3.1-2.064a11.908,11.908,0,0,1,3.293-2.99l1.866,3.969,2.4-1.127-1.867-3.971a11.727,11.727,0,0,1,4.234-.628l-.905,3.621,2.566.641.978-3.911a11.646,11.646,0,0,1,2.491.95L54.587,26.7l2.489.9.343-.952a11.949,11.949,0,0,1,3.341,4.517ZM37.831,44.871l2.64,5.07c.127.241.248.46.365.669a2.127,2.127,0,0,1-2.5-1.164l-.991-2.084A2.173,2.173,0,0,1,37.831,44.871Zm5.953-26.362a5.287,5.287,0,0,1,4.609,2.718,14.551,14.551,0,0,0-9.472,4.621,5.256,5.256,0,0,1,4.862-7.34ZM28.651,54.756a9.249,9.249,0,0,1,7.173-4.438l.121.255a4.773,4.773,0,0,0,6.375,2.3l.008,0a23.967,23.967,0,0,0,4.209,4.516L29.044,59.139c-1.1.11-2.2.284-3.295.5Zm-6.7,8.589a34.038,34.038,0,0,1,7.361-1.574l22.414-2.248H65.835l2.384,1.788L52.858,63.5a1.318,1.318,0,0,0-.27.068l-24.917,9.18h-4.2a4.828,4.828,0,0,1-1.526-9.407Zm65.63,9.409h-2.72L54.484,70.061a1.252,1.252,0,0,0-.543.066l-7.73,2.628H35.322L53.371,66.1,70.5,63.659,87.312,62.17h.251a4.535,4.535,0,0,1,.557.032,5.3,5.3,0,0,1-.543,10.552Z" transform="translate(0 0)"/><path d="M181.3,180.867l1.659,2.062a11.6,11.6,0,0,1,4.92-2.314l-.529-2.592a14.256,14.256,0,0,0-6.05,2.844Z" transform="translate(-137.967 -135.364)"/><path d="M244.3,215.4a7.521,7.521,0,0,1-3,.714l-.217.005.062,2.646.216-.005a10.2,10.2,0,0,0,6.268-2.368l-1.7-2.029A7.508,7.508,0,0,1,244.3,215.4Z" transform="translate(-187.855 -165.697)"/><path d="M173.7,157.968l.749-2.538a7.252,7.252,0,0,0-8.94,4.223l2.452.995A4.591,4.591,0,0,1,173.7,157.968Z" transform="translate(-124.783 -116.237)"/><path d="M235.3,126.748l2.431,1.042a4.6,4.6,0,0,1,5.725-2.709l.8-2.522a7.247,7.247,0,0,0-8.952,4.19Z" transform="translate(-183.032 -88.778)"/><path d="M0,0H2.647V8.108H0Z" transform="matrix(0.905, -0.425, 0.425, 0.905, 50.67, 41.108)"/><path d="M254.57,150.334a11.608,11.608,0,0,1,4.921-2.314l-.532-2.592a14.258,14.258,0,0,0-6.048,2.844Z" transform="translate(-197.731 -108.16)"/><path d="M65.925,397.447a4.214,4.214,0,0,0-2.661-1.887,6.052,6.052,0,0,0-1.982-.125c-.015-.085-.032-.171-.053-.256a4.077,4.077,0,0,0-1.949-2.569,4.267,4.267,0,0,0-5.7,1.309,5.365,5.365,0,0,0-.7,1.674,4.238,4.238,0,0,0-3.372.886l-.042.033a3.89,3.89,0,0,0-1.454,2.75,3.846,3.846,0,0,0,1.017,2.9l.141.154a5.618,5.618,0,0,0,1.38,1.1,3.886,3.886,0,0,0-.056,3.348,4.315,4.315,0,0,0,5.445,2.17,5.758,5.758,0,0,0,1.648-.978,4.314,4.314,0,0,0,3.057,1.27q.151,0,.3-.011a4.13,4.13,0,0,0,2.893-1.45,3.907,3.907,0,0,0,.915-2.922,5.477,5.477,0,0,0-.484-1.775,3.945,3.945,0,0,0,2.147-2.641A3.9,3.9,0,0,0,65.925,397.447Zm-3.256.691a1.585,1.585,0,0,1,1.007.7,1.273,1.273,0,0,1,.167.972,1.436,1.436,0,0,1-1.4,1.031,6.012,6.012,0,0,0-3.341-1.168A3.173,3.173,0,0,1,62.669,398.138Zm-6.855-2.8a1.617,1.617,0,0,1,2.141-.438,1.454,1.454,0,0,1,.7.907,1.237,1.237,0,0,1,.01.542,5.479,5.479,0,0,0-2.173,2.681,2.966,2.966,0,0,1-1.028-1.6A2.685,2.685,0,0,1,55.814,395.338Zm-5.165,4.121a1.27,1.27,0,0,1,.484-.893l.042-.033A1.613,1.613,0,0,1,53,398.409a5.608,5.608,0,0,0,1.975,2.791,3.266,3.266,0,0,1-3.85-.665l-.141-.154A1.225,1.225,0,0,1,50.649,399.459Zm4.329,7.009a1.656,1.656,0,0,1-2.074-.794,1.252,1.252,0,0,1,.342-1.493c.084,0,.167.006.25.006a5.9,5.9,0,0,0,3.278-.98,2.678,2.678,0,0,1-.121,1.655A2.911,2.911,0,0,1,54.978,406.468Zm6.839-.411a1.5,1.5,0,0,1-1.058.519,1.634,1.634,0,0,1-1.585-.9,5.3,5.3,0,0,0,.107-3.335,3.174,3.174,0,0,1,2.838,2.759A1.282,1.282,0,0,1,61.817,406.057Z" transform="translate(-26.708 -313.979)"/></g></svg>