<svg xmlns="http://www.w3.org/2000/svg" width="25.111" height="25.111" viewBox="0 0 25.111 25.111"><path d="M136.379,5228.08c1.339-.069,1.766-.08,5.176-.08s3.837.011,5.175.08a9.187,9.187,0,0,1,3.05.583,6.079,6.079,0,0,1,2.223,1.449,6.154,6.154,0,0,1,1.447,2.214,9.237,9.237,0,0,1,.584,3.047c.062,1.347.075,1.769.075,5.182s-.015,3.835-.075,5.17a9.2,9.2,0,0,1-.584,3.048,6.421,6.421,0,0,1-3.671,3.675,9.184,9.184,0,0,1-3.048.583c-1.34.068-1.767.08-5.177.08s-3.837-.011-5.176-.08a9.184,9.184,0,0,1-3.048-.583,6.069,6.069,0,0,1-2.225-1.45,6.151,6.151,0,0,1-1.448-2.214,9.27,9.27,0,0,1-.583-3.048c-.062-1.347-.075-1.769-.075-5.182s.015-3.835.075-5.17a9.255,9.255,0,0,1,.583-3.06,6.175,6.175,0,0,1,1.45-2.214,6.055,6.055,0,0,1,2.222-1.449,9.184,9.184,0,0,1,3.048-.583Zm10.25,2.26c-1.324-.068-1.721-.08-5.074-.08s-3.75.012-5.074.08a7.084,7.084,0,0,0-2.332.422,3.853,3.853,0,0,0-1.444.948,3.8,3.8,0,0,0-.938,1.438,6.95,6.95,0,0,0-.433,2.329c-.061,1.324-.073,1.724-.073,5.079s.013,3.744.073,5.068a6.968,6.968,0,0,0,.433,2.34,3.8,3.8,0,0,0,.938,1.438,3.908,3.908,0,0,0,1.444.948,6.792,6.792,0,0,0,2.332.422c1.324.068,1.72.08,5.074.08s3.75-.012,5.074-.08a6.792,6.792,0,0,0,2.332-.422,3.853,3.853,0,0,0,1.444-.948,3.8,3.8,0,0,0,.938-1.438,6.968,6.968,0,0,0,.433-2.34c.061-1.324.073-1.712.073-5.068s-.013-3.755-.073-5.079a6.95,6.95,0,0,0-.433-2.329,4.212,4.212,0,0,0-2.382-2.385A7.084,7.084,0,0,0,146.629,5230.339Zm-6.677,14.085a4.187,4.187,0,1,0,3.014-7.808,4.192,4.192,0,0,0-3.563.343,4.181,4.181,0,0,0-.951,6.4A4.123,4.123,0,0,0,139.952,5244.425Zm-2.96-8.435a6.442,6.442,0,0,1,2.093-1.393,6.468,6.468,0,0,1,4.94,0,6.446,6.446,0,0,1,3.493,8.424,6.515,6.515,0,0,1-1.4,2.1,6.455,6.455,0,0,1-9.127-9.131Zm12.448-.925a1.45,1.45,0,0,0,.349-.5,1.5,1.5,0,0,0,.129-.594,1.542,1.542,0,0,0-.112-.593,1.62,1.62,0,0,0-.334-.5,1.35,1.35,0,0,0-.506-.331,1.523,1.523,0,0,0-2.1,1.426,1.54,1.54,0,0,0,.446,1.062,1.535,1.535,0,0,0,2.126.034Z" transform="translate(-129 -5228)" fill="#fff" fill-rule="evenodd"/></svg>