<svg xmlns="http://www.w3.org/2000/svg" width="196.732" height="27.093" viewBox="0 0 196.732 27.093"><g transform="translate(-73.733 -809.407)"><g transform="translate(73.733 812.446)"><g transform="translate(23.866 0.35)"><path d="M20.192,16.8,16.722,37.16h5.549L25.744,16.8Z" transform="translate(-16.722 -16.799)" fill="#a8aaaf"/></g><g transform="translate(5.512 0.368)"><path d="M17.564,16.816,12.129,30.7l-.579-2.1a21.785,21.785,0,0,0-7.687-8.441l4.97,16.98,5.872-.01,8.739-20.323Z" transform="translate(-3.862 -16.812)" fill="#a8aaaf"/></g><g transform="translate(0 0.176)"><path d="M11.093,18.331a2.233,2.233,0,0,0-2.418-1.654H.071L0,17.082c6.7,1.624,11.125,5.538,12.964,10.243Z" transform="translate(0 -16.677)" fill="#a8aaaf"/></g><g transform="translate(32.888 0)"><path d="M34.29,20.807a10.245,10.245,0,0,1,4.153.779l.5.236.751-4.413a14.324,14.324,0,0,0-4.971-.855c-5.483,0-9.348,2.762-9.378,6.719-.036,2.924,2.753,4.557,4.86,5.532,2.162,1,2.887,1.634,2.877,2.526-.017,1.363-1.724,1.988-3.318,1.988a11.648,11.648,0,0,1-5.225-1.066l-.715-.325-.781,4.557a17.575,17.575,0,0,0,6.183,1.085c5.833,0,9.624-2.729,9.664-6.958.024-2.314-1.456-4.079-4.663-5.528-1.941-.945-3.129-1.573-3.117-2.526C31.11,21.712,32.117,20.807,34.29,20.807Z" transform="translate(-23.043 -16.554)" fill="#a8aaaf"/></g><g transform="translate(48.347 0.373)"><path d="M49.308,16.815H45.021a2.761,2.761,0,0,0-2.907,1.69l-8.239,18.66H39.7s.951-2.509,1.166-3.059l7.106.009c.166.711.677,3.05.677,3.05H53.8ZM42.465,29.938c.457-1.169,2.211-5.69,2.211-5.69-.03.056.452-1.177.739-1.944l.374,1.756,1.286,5.879Z" transform="translate(-33.874 -16.815)" fill="#a8aaaf"/></g></g><g transform="translate(161.852 809.407)"><g transform="translate(0 0)"><path d="M31.705,9.716a13.486,13.486,0,0,0-9.083,3.5,13.494,13.494,0,0,0-9.079-3.5h-.087a13.543,13.543,0,1,0,9.164,23.587,13.4,13.4,0,0,1-1.385-1.48h2.8a13.541,13.541,0,0,1-1.375,1.451h0c-.011.012-.023.02-.035.03A13.54,13.54,0,0,0,45.249,23.262v-.007A13.539,13.539,0,0,0,31.705,9.716Zm-10.314,4.9h2.574a14.113,14.113,0,0,1,1.051,1.45H20.424C20.72,15.583,21.045,15.085,21.391,14.617Zm-1.767,2.872H25.8a14.469,14.469,0,0,1,.584,1.451H18.893C18.967,18.8,19.229,18.235,19.624,17.489Zm-14.1,9.223.821-5.178L4.5,26.712H3.5l-.129-5.178L2.5,26.712H1.106l1.153-6.867h2.1l.074,4.214,1.421-4.214H8.141L7,26.712Zm4.919-.011.048-.548a1.87,1.87,0,0,1-1.479.662,1.369,1.369,0,0,1-1.392-1.554c0-1.606,1.31-2.139,2.557-2.139.2,0,.619.036.619.036a.934.934,0,0,0,.048-.363c0-.436-.392-.5-.93-.5a4.565,4.565,0,0,0-1.572.253l.209-1.243a4.986,4.986,0,0,1,1.746-.318,1.705,1.705,0,0,1,1.981,1.739L11.718,26.7Zm5.366-1.749c0,1.916-1.857,1.834-2.181,1.834a4.636,4.636,0,0,1-1.618-.177l.192-1.261a4.715,4.715,0,0,0,1.281.22c.389,0,.893-.038.893-.5,0-.7-1.805-.529-1.805-2.18,0-1.457,1.082-1.883,2.149-1.883a6.726,6.726,0,0,1,1.331.113l-.182,1.273s-.782-.064-.985-.064c-.513,0-.792.112-.792.471C14.1,23.515,15.814,23.162,15.814,24.952Zm2.229.5c.128,0,.273-.044.372-.044l-.18,1.225a3.716,3.716,0,0,1-1.081.19A1.07,1.07,0,0,1,16,25.6c0-.572.819-5.284.851-5.315H18.3l-.147.843h.719l-.184,1.358h-.763l-.406,2.5C17.486,25.189,17.542,25.454,18.043,25.454Zm3.171-4.482a1.934,1.934,0,0,1,2.057,2.109A10.3,10.3,0,0,1,23.08,24.4H20.15s-.271,1.154,1.277,1.154a4.49,4.49,0,0,0,1.531-.355L22.7,26.584a3.657,3.657,0,0,1-1.523.237A2.264,2.264,0,0,1,18.691,24.3C18.692,22.534,19.764,20.972,21.214,20.972Zm3.819,9.458h-4.8a13.392,13.392,0,0,1-.8-1.45h6.394A13.908,13.908,0,0,1,25.033,30.431Zm-.322-3.708h-1.48l.9-5.589h1.343l-.129.81s.478-.881,1.124-.881a1.544,1.544,0,0,1,.278.019,5.546,5.546,0,0,0-.536,1.672C25.209,22.4,25.132,24.335,24.711,26.722Zm5.639-.087a6.653,6.653,0,0,1-1.261.2c-1.721,0-2.595-1.188-2.595-2.986,0-2.712,1.619-4.157,3.283-4.157a5.163,5.163,0,0,1,1.624.353l-.235,1.528a2.568,2.568,0,0,0-1.323-.412c-.981,0-1.861.936-1.861,2.638a1.427,1.427,0,0,0,1.434,1.619,3.456,3.456,0,0,0,1.192-.354Zm3.471.068.049-.552a1.874,1.874,0,0,1-1.479.662A1.369,1.369,0,0,1,31,25.26c0-1.606,1.31-2.139,2.556-2.139.2,0,.62.036.62.036a.909.909,0,0,0,.049-.363c0-.436-.392-.5-.931-.5a4.555,4.555,0,0,0-1.571.253l.209-1.243a4.988,4.988,0,0,1,1.747-.318,1.7,1.7,0,0,1,1.98,1.739L35.092,26.7S33.821,26.7,33.821,26.7Zm3,.019h-1.48l.9-5.589h1.344l-.129.81s.479-.881,1.125-.881a1.526,1.526,0,0,1,.278.019,5.546,5.546,0,0,0-.536,1.672C37.315,22.4,37.239,24.335,36.817,26.722Zm4.419-.015.063-.515a1.8,1.8,0,0,1-1.344.6c-1.2,0-1.786-1.158-1.786-2.341,0-1.829,1.1-3.424,2.422-3.424a1.912,1.912,0,0,1,1.393.752l.312-1.929,1.445,0-1.1,6.856Zm2.852-.193a.431.431,0,0,1-.162.164.435.435,0,0,1-.434,0,.443.443,0,0,1-.22-.38.445.445,0,0,1,.058-.219.415.415,0,0,1,.164-.163.444.444,0,0,1,.214-.058.437.437,0,0,1,.215.058.4.4,0,0,1,.164.163.438.438,0,0,1,0,.435Z" transform="translate(0 -9.716)" fill="#a8aaaf"/></g><g transform="translate(43.776 20.9)"><path d="M47.047,32.115a.133.133,0,0,0-.033-.022.228.228,0,0,0-.075-.008h-.088v.14h.093a.132.132,0,0,0,.09-.02.061.061,0,0,0,.023-.051A.07.07,0,0,0,47.047,32.115Z" transform="translate(-46.852 -32.084)" fill="#a8aaaf"/></g><g transform="translate(43.457 20.626)"><path d="M47.327,32.012a.4.4,0,0,0-.165-.163.441.441,0,0,0-.214-.058.437.437,0,0,0-.215.058.405.405,0,0,0-.164.163.424.424,0,0,0-.058.217.441.441,0,0,0,.058.217.434.434,0,0,0,.163.164.445.445,0,0,0,.219.058.437.437,0,0,0,.216-.058.418.418,0,0,0,.162-.164.429.429,0,0,0,.058-.217A.438.438,0,0,0,47.327,32.012Zm-.269.46h0l-.041-.074a.391.391,0,0,0-.08-.111.1.1,0,0,0-.06-.017h-.044v.2h-.077V32h.163a.348.348,0,0,1,.119.014.106.106,0,0,1,.06.046.118.118,0,0,1,.021.069.135.135,0,0,1-.036.091.151.151,0,0,1-.1.043.1.1,0,0,1,.04.025.551.551,0,0,1,.07.092l.058.093Z" transform="translate(-46.51 -31.791)" fill="#a8aaaf"/></g><g transform="translate(9.028 14.478)"><path d="M10.933,25.211c-1.057,0-1.271.475-1.271.87a.524.524,0,0,0,.564.544c.868,0,1.048-1.138,1.02-1.38A.877.877,0,0,0,10.933,25.211Z" transform="translate(-9.662 -25.211)" fill="#a8aaaf"/></g><g transform="translate(20.283 12.546)"><path d="M22.645,23.144c-.786,0-.937.894-.937.989h1.6C23.309,24.061,23.459,23.144,22.645,23.144Z" transform="translate(-21.708 -23.144)" fill="#a8aaaf"/></g><g transform="translate(39.704 12.702)"><path d="M43.629,23.311c-.634,0-1.136.736-1.135,1.855,0,.682.243,1.119.762,1.119.781,0,1.158-1.019,1.158-1.779C44.414,23.668,44.148,23.311,43.629,23.311Z" transform="translate(-42.494 -23.311)" fill="#a8aaaf"/></g><g transform="translate(43.343 16.216)"><path d="M47.067,27.255a.352.352,0,0,0-.136-.135.356.356,0,0,0-.178-.049.372.372,0,0,0-.178.049.329.329,0,0,0-.136.135.377.377,0,0,0-.05.182.364.364,0,0,0,.184.318.373.373,0,0,0,.18.05.367.367,0,0,0,.18-.05.354.354,0,0,0,.136-.136.363.363,0,0,0,.048-.181A.374.374,0,0,0,47.067,27.255Zm-.2.422-.042-.073a.377.377,0,0,0-.078-.11.1.1,0,0,0-.062-.018h-.043v.2h-.078v-.471h.164a.333.333,0,0,1,.12.015.134.134,0,0,1,.06.045.109.109,0,0,1,.021.069.127.127,0,0,1-.037.09.147.147,0,0,1-.1.043.13.13,0,0,1,.04.024.477.477,0,0,1,.069.092l.058.093Z" transform="translate(-46.388 -27.071)" fill="#a8aaaf"/></g><g transform="translate(32.402 14.478)"><path d="M35.95,25.211c-1.057,0-1.271.475-1.271.87a.524.524,0,0,0,.564.544c.868,0,1.047-1.138,1.02-1.38A.887.887,0,0,0,35.95,25.211Z" transform="translate(-34.679 -25.211)" fill="#a8aaaf"/></g><g transform="translate(43.594 16.414)"><path d="M46.85,27.316a.085.085,0,0,0-.032-.023.265.265,0,0,0-.077-.009h-.085v.142h.092a.148.148,0,0,0,.091-.02.073.073,0,0,0,.022-.052A.062.062,0,0,0,46.85,27.316Z" transform="translate(-46.657 -27.283)" fill="#a8aaaf"/></g></g><g transform="translate(225.664 812.446)"><g transform="translate(29.935 0.177)"><path d="M35.471,14.049V13H32.038V19.2h3.433V18.154H33.248V16.477H35.39V15.426H33.248V14.049Z" transform="translate(-32.038 -12.996)" fill="#a8aaaf"/></g><g transform="translate(34.173 0.178)"><path d="M39.153,16.592a1.652,1.652,0,0,0,1.415-1.76c0-1.162-.8-1.833-2.2-1.833h-1.8v6.209h1.21V16.712h.157l1.675,2.495h1.491Zm-1.017-.736h-.352V13.976h.372c.755,0,1.164.316,1.164.919C39.321,15.521,38.91,15.855,38.136,15.855Z" transform="translate(-36.574 -12.998)" fill="#a8aaaf"/></g><g transform="translate(38.227 0.054)"><path d="M41.39,12.865a.476.476,0,1,0,.469.476A.474.474,0,0,0,41.39,12.865Zm0,.866a.39.39,0,1,1,.377-.39A.385.385,0,0,1,41.386,13.731Z" transform="translate(-40.913 -12.865)" fill="#a8aaaf"/></g><g transform="translate(38.501 0.258)"><path d="M41.47,13.4a.149.149,0,0,0,.119-.152c0-.11-.075-.169-.207-.169h-.176v.546h.13v-.212l.153.212h.159Zm-.113-.079h-.021v-.142h.022c.064,0,.1.023.1.07S41.422,13.325,41.357,13.325Z" transform="translate(-41.206 -13.083)" fill="#a8aaaf"/></g><g transform="translate(5.672 0.177)"><rect width="1.21" height="6.209" fill="#a8aaaf"/></g><g transform="translate(7.334 0.074)"><path d="M10.354,15.37c-.728-.268-.942-.447-.942-.781,0-.391.381-.689.9-.689a1.254,1.254,0,0,1,.976.5l.633-.831a2.723,2.723,0,0,0-1.825-.688,1.821,1.821,0,0,0-1.934,1.778c0,.855.389,1.293,1.526,1.7a4.828,4.828,0,0,1,.837.353.742.742,0,0,1,.363.643.886.886,0,0,1-.94.876,1.432,1.432,0,0,1-1.321-.829l-.783.754A2.413,2.413,0,0,0,10,19.347a2,2,0,0,0,2.142-2.039C12.139,16.322,11.729,15.874,10.354,15.37Z" transform="translate(-7.849 -12.886)" fill="#a8aaaf"/></g><g transform="translate(11.848 8.979)"><path d="M12.68,34.306H45.634V22.417S34,30.629,12.68,34.306Z" transform="translate(-12.68 -22.417)" fill="#a8aaaf"/></g><g transform="translate(0 0.178)"><path d="M1.775,13H0v6.209H1.769a3.236,3.236,0,0,0,2.213-.719,3.109,3.109,0,0,0,1.126-2.382A3.083,3.083,0,0,0,1.775,13ZM3.19,17.66a2.292,2.292,0,0,1-1.655.493H1.21V14.048h.325a2.244,2.244,0,0,1,1.655.5A2.088,2.088,0,0,1,3.862,16.1,2.123,2.123,0,0,1,3.19,17.66Z" transform="translate(0 -12.998)" fill="#a8aaaf"/></g><g transform="translate(23.42 0.178)"><path d="M29.722,13l-1.678,4.17L26.389,13H25.066L27.7,19.364h.649L31.033,13Z" transform="translate(-25.066 -12.998)" fill="#a8aaaf"/></g><g transform="translate(17.195 0)"><path d="M21.7,12.807a3.3,3.3,0,1,0,3.153,4.284c.02-.057.031-.115.048-.172s.025-.1.035-.144a3.2,3.2,0,0,0,.067-.667A3.3,3.3,0,0,0,21.7,12.807Z" transform="translate(-18.403 -12.807)" fill="#a8aaaf"/></g><g transform="translate(12.005 0.037)"><path d="M16.125,13.953a2.026,2.026,0,0,1,1.518.7V13.228a3.086,3.086,0,0,0-1.489-.381,3.264,3.264,0,0,0-3.3,3.249,3.212,3.212,0,0,0,3.275,3.238,3.324,3.324,0,0,0,1.518-.362V17.546a1.936,1.936,0,0,1-1.461.681A2.028,2.028,0,0,1,14.1,16.085,2.064,2.064,0,0,1,16.125,13.953Z" transform="translate(-12.849 -12.847)" fill="#a8aaaf"/></g></g></g></svg>