<svg xmlns="http://www.w3.org/2000/svg" width="74.946" height="73.978" viewBox="0 0 74.946 73.978"><g transform="translate(-0.5 -4)"><g transform="translate(1.16 4)"><path d="M78.626,39.845V53.133L62.111,31.162S57.8,43.761,57.8,53.133s2.42,24.493,2.42,24.493H27.806s2.42-15.121,2.42-24.493-4.312-21.97-4.312-21.97L22.79,35.328c.029.1-1.276-4.165-1.276-4.165L5,53.133V48.689S19.637,18.461,23.67,15.733s10.941-1.1,15.8-5.867V4h9.093V9.867c4.84,4.767,11.777,3.153,15.8,5.867S78.626,39.845,78.626,39.845Z" transform="translate(-5 -4)" fill="#fff"/><g transform="translate(32.544 5.104)"><path d="M234.035,102.086l-4.224-1.247c4.869-16.456,2.112-26.62-.323-35.581-2.229-8.2-4.327-15.928-.4-26.458l4.121,1.54c-3.432,9.2-1.613,15.957.513,23.774C236.323,73.633,239.257,84.427,234.035,102.086Z" transform="translate(-226.891 -38.8)" fill="#29ab87"/></g><g transform="translate(11.88 6.263)"><path d="M105.77,336.026a1.267,1.267,0,0,0,.205-.191l.235-.66a1.11,1.11,0,0,0-.015-.22,1.038,1.038,0,0,0-1.555-.675l-3.212,1.951,3.7-10.223A5.256,5.256,0,0,0,101.986,324a16.784,16.784,0,0,0-2.655.777s-4.488,8.3-4.605,13.6L86,350.693h6.527l5.192-9.533C102.456,340.954,103.277,337.713,105.77,336.026Z" transform="translate(-86 -283.33)" fill="#fff"/><path d="M330.859,64.842l-14.285-4.591c-3.491,3.2-6.351,1.5-9.313,2.068a1.034,1.034,0,0,1-.425-2.024l3.652-.895-9.841-4.62S299.517,50.1,307,46.7c0,0,9.035,2.684,12.862,6.365l11,1.877Z" transform="translate(-269.114 -46.7)" fill="#fff"/></g></g><g transform="translate(0.5 4)"><g transform="translate(0.073 26.434)"><path d="M2.173,207.371,1,206.491l16.514-21.97a.716.716,0,0,1,.7-.279.743.743,0,0,1,.572.484A97.157,97.157,0,0,1,22.9,202.648l-1.452.161a91.809,91.809,0,0,0-3.608-16.265Z" transform="translate(-1 -184.232)" fill="#4d241a"/></g><g transform="translate(52.726 26.434)"><path d="M362.435,231.546c-.029-.147-2.435-15.282-2.435-24.61,0-9.387,4.18-21.692,4.356-22.205a.717.717,0,0,1,.572-.484.759.759,0,0,1,.7.279l16.514,21.97-1.173.88-15.664-20.841c-1.085,3.461-3.843,13.024-3.843,20.4,0,9.211,2.391,24.229,2.42,24.376Z" transform="translate(-360 -184.237)" fill="#4d241a"/></g><g transform="translate(68.243 24.889)"><path d="M471.182,184.979c-.029-.044-2.464-5.133-5.383-10.589l1.291-.689c2.933,5.485,5.383,10.589,5.412,10.648Z" transform="translate(-465.8 -173.7)" fill="#4d241a"/></g><g transform="translate(43.486 0)"><path d="M300.637,12.756a12.463,12.463,0,0,1-3.417-2.361.7.7,0,0,1-.22-.528V4h1.467V9.559a10.815,10.815,0,0,0,2.787,1.877Z" transform="translate(-297 -4)" fill="#4d241a"/></g><g transform="translate(0 0)"><path d="M1.82,40.167.5,39.537c.425-.88,10.369-21.6,14.52-24.4,1.8-1.217,4.077-1.613,6.483-2.024,3.124-.557,6.351-1.115,8.991-3.549V4H31.96V9.867a.744.744,0,0,1-.22.528c-2.992,2.933-6.717,3.579-10,4.151-2.244.381-4.356.748-5.911,1.8C12.673,18.476,4.651,34.257,1.82,40.167Z" transform="translate(-0.5 -4)" fill="#4d241a"/></g><g transform="translate(32.472 4.366)"><path d="M229.778,98.528a.99.99,0,0,1-.205-.029l-4.224-1.247a.749.749,0,0,1-.44-.352.738.738,0,0,1-.059-.557c4.811-16.25,2.083-26.312-.323-35.185-2.259-8.316-4.385-16.162-.367-26.913a.8.8,0,0,1,.381-.411.734.734,0,0,1,.557-.015l4.121,1.54a.721.721,0,0,1,.425.939c-3.359,8.976-1.555,15.62.543,23.32,2.611,9.621,5.573,20.533.293,38.382a.768.768,0,0,1-.7.528Zm-3.315-2.479,2.816.836c4.884-17.028,2.024-27.573-.513-36.871-2.1-7.744-3.931-14.461-.748-23.525l-2.743-1.027c-3.505,9.959-1.481,17.424.66,25.329,2.435,8.9,5.177,19.008.528,35.258Z" transform="translate(-221.902 -33.771)" fill="#4d241a"/></g><g transform="translate(33.79 8.9)"><path d="M0,0H4.444V1.467H0Z" transform="matrix(0.941, 0.338, -0.338, 0.941, 0.496, 0)" fill="#4d241a"/></g><g transform="translate(33.22 15.4)"><path d="M227,109h4.4v1.467H227Z" transform="translate(-227 -109)" fill="#4d241a"/></g><g transform="translate(33.549 21.015)"><path d="M0,0H1.467V4.415H0Z" transform="translate(4.317 0) rotate(77.993)" fill="#4d241a"/></g><g transform="translate(34.863 26.984)"><path d="M0,0H1.467V4.4H0Z" transform="matrix(0.201, 0.98, -0.98, 0.201, 4.312, 0)" fill="#4d241a"/></g><g transform="translate(36.315 31.992)"><path d="M0,0H1.467V4.532H0Z" transform="translate(3.975 0) rotate(61.307)" fill="#4d241a"/></g><g transform="translate(37.832 39.176)"><path d="M0,0H1.467V4.429H0Z" transform="translate(4.296 0) rotate(75.936)" fill="#4d241a"/></g><g transform="translate(38.646 45.613)"><path d="M264,315h4.547v1.467H264Z" transform="translate(-264 -315)" fill="#4d241a"/></g><g transform="translate(38.712 51.133)"><path d="M0,0H4.429V1.467H0Z" transform="translate(0.109 0) rotate(4.245)" fill="#4d241a"/></g><g transform="translate(38.205 55.753)"><path d="M0,0H4.473V1.467H0Z" transform="translate(0.421 0) rotate(16.677)" fill="#4d241a"/></g><g transform="translate(37.277 61.214)"><path d="M0,0H4.429V1.467H0Z" transform="matrix(0.953, 0.304, -0.304, 0.953, 0.446, 0)" fill="#4d241a"/></g><g transform="translate(7.524 45.896)"><path d="M53,345.016l-1.2-.851,8.595-12.114c.235-5.412,4.5-13.361,4.679-13.7a.712.712,0,0,1,.381-.337c8.169-3.065,10.971,1.349,11.088,1.525a.735.735,0,0,1,.059.631l-2.977,8.257,1.437-.88a1.82,1.82,0,0,1,1.628-.117,1.778,1.778,0,0,1,.293,3.095,11.02,11.02,0,0,0-1.907,1.8c-1.335,1.481-2.845,3.153-6.1,3.417l-5,9.181-1.291-.7,5.192-9.533a.742.742,0,0,1,.616-.381c2.933-.132,4.18-1.511,5.5-2.963a12.018,12.018,0,0,1,2.171-2.039.286.286,0,0,0,.117-.308.313.313,0,0,0-.176-.22.273.273,0,0,0-.279.015l-3.212,1.951a.754.754,0,0,1-.851-.059.726.726,0,0,1-.22-.821l3.549-9.841c-.675-.763-3.124-2.816-8.859-.763-.719,1.393-4.3,8.448-4.385,13.024a.686.686,0,0,1-.132.411Z" transform="translate(-51.8 -316.935)" fill="#4d241a"/></g><g transform="translate(20.602 46.752)"><path d="M0,0H1.467V7.656H0Z" transform="translate(2.618 0) rotate(19.993)" fill="#4d241a"/></g><g transform="translate(23.459 46.428)"><path d="M0,0H1.467V7.759H0Z" transform="matrix(0.935, 0.354, -0.354, 0.935, 2.747, 0)" fill="#4d241a"/></g><g transform="translate(26.265 47.231)"><path d="M0,0H1.467V8.052H0Z" transform="translate(3.028 0) rotate(22.078)" fill="#4d241a"/></g><g transform="translate(43.281 5.537)"><path d="M326.389,61.325,312.5,56.852c-2.493,2.1-4.737,1.995-6.732,1.892a11.15,11.15,0,0,0-2.625.073,1.732,1.732,0,0,1-1.8-.777,1.77,1.77,0,0,1,1.071-2.684l1.628-.4-7.949-3.74a.692.692,0,0,1-.4-.484c-.059-.22-1.188-5.309,6.747-8.917a.689.689,0,0,1,.513-.029c.367.117,9.005,2.713,12.994,6.38L326.727,50l-.249,1.452-11-1.877a.726.726,0,0,1-.381-.191c-3.3-3.168-10.809-5.632-12.305-6.1-5.5,2.6-5.793,5.779-5.72,6.805l9.475,4.444a.71.71,0,0,1,.411.733.734.734,0,0,1-.557.645l-3.652.895a.283.283,0,0,0-.205.176.327.327,0,0,0,.029.279.3.3,0,0,0,.308.132,12.764,12.764,0,0,1,2.977-.1c1.965.1,3.828.191,5.984-1.789a.754.754,0,0,1,.719-.161l14.285,4.591Z" transform="translate(-295.605 -41.753)" fill="#4d241a"/></g><g transform="translate(47.845 6.881)"><path d="M0,0H7.656V1.467H0Z" transform="matrix(0.906, 0.423, -0.423, 0.906, 0.62, 0)" fill="#4d241a"/></g><g transform="translate(45.558 8.793)"><path d="M0,0H7.759V1.467H0Z" transform="translate(0.603 0) rotate(24.259)" fill="#4d241a"/></g><g transform="translate(43.964 11.482)"><path d="M0,0H8.052V1.467H0Z" transform="matrix(0.921, 0.389, -0.389, 0.921, 0.571, 0)" fill="#4d241a"/></g></g></g></svg>