<svg xmlns="http://www.w3.org/2000/svg" width="74.569" height="71.366" viewBox="0 0 74.569 71.366"><g transform="translate(0 -0.5)"><path d="M81,378.442V367.823q-1.082.021-2.163.026c-11.634.05-22.851-2.556-33.794-6.419-19.805-6.991-35.528,5.779-35.528,5.779v11.233Zm0,0" transform="translate(-8.133 -306.576)" fill="#fff"/><path d="M166.564,48.591V31.518a3.106,3.106,0,0,0-3.528-3.077l-5.446.748L144.321,31.01a8.356,8.356,0,0,1-1.984.034l-15.688-1.6a8.352,8.352,0,0,0-6.949,2.605l-7.98,8.537a8.352,8.352,0,0,0-2.25,5.7v11.94a23.283,23.283,0,0,0,2.784,11.04l.609,1.132a4.414,4.414,0,0,0,3.853,2.356,2.668,2.668,0,0,0,2.017-.761V68.545" transform="translate(-93.526 -23.846)" fill="#fff"/><path d="M21.8,183.255a3.451,3.451,0,0,1-4.227-3.42l.042-2.55a3.457,3.457,0,0,0-.374-1.619l-1.154-2.274a3.452,3.452,0,1,1,6.53-1.591l.023,2.705a3.453,3.453,0,0,0,.336,1.457l1.165,2.442A3.452,3.452,0,0,1,21.8,183.255Zm0,0" transform="translate(-13.42 -143.426)" fill="#29ab87"/><path d="M316.609,197.367a52.132,52.132,0,0,0,17.988-6.124" transform="translate(-270.498 -162.962)" fill="#f2d1a5"/><path d="M162.272,172.274a3.5,3.5,0,0,1-.811-3.172l.614-2.475a3.45,3.45,0,0,0,0-1.662l-.614-2.475a3.452,3.452,0,1,1,6.721-.084l-.586,2.642a3.452,3.452,0,0,0,0,1.5l.224,1.01" transform="translate(-137.858 -134.738)" fill="#29ab87"/><path d="M179.113,113.035v2.216a10.179,10.179,0,0,1-4.05,8.127l-10.154,7.659c-1.858,1.4-3.608,2.768-3.772,5.335a5.814,5.814,0,0,0,1.486,4.233,4.783,4.783,0,0,0,3.984,1.619,6.767,6.767,0,0,0,2.839-1.211c2.38-1.563,4.471-3.532,6.762-5.219,2.442-1.8,4.788-3.746,7.172-5.623l10.006-7.874" transform="translate(-137.66 -96.145)" fill="#fff"/><path d="M269.175,204.456a3.452,3.452,0,0,1-2.624-4.762l1-2.346a3.449,3.449,0,0,0,.265-1.64l-.211-2.541a3.452,3.452,0,1,1,6.647.99l-1,2.515a3.442,3.442,0,0,0-.238,1.476l.157,2.7A3.453,3.453,0,0,1,269.175,204.456Zm0,0" transform="translate(-227.491 -161.412)" fill="#29ab87"/><path d="M441.008,10.516h8.881V39.37h-8.881Zm0,0" transform="translate(-376.778 -8.557)" fill="#29ab87"/><path d="M121.689,422.686c-11.015,5.341-22.142,3.387-27.8,1.747a1.459,1.459,0,1,0-.813,2.8,47.2,47.2,0,0,0,12.926,1.875h.027a38.511,38.511,0,0,0,16.928-3.8,1.459,1.459,0,0,0-1.273-2.625Zm0,0" transform="translate(-78.625 -360.572)"/><path d="M55.636,420.576l-.073.017a1.459,1.459,0,1,0,.669,2.84l.073-.017a1.459,1.459,0,1,0-.669-2.84Zm0,0" transform="translate(-46.509 -358.861)"/><path d="M342.769,80.439l-.074.017a1.459,1.459,0,0,0,.332,2.88,1.439,1.439,0,0,0,.335-.039l.074-.017a1.459,1.459,0,1,0-.666-2.841Zm0,0" transform="translate(-291.823 -68.263)"/><path d="M73.11.5H64.229a1.459,1.459,0,0,0-1.459,1.459V4.081l-12.1,1.661a6.889,6.889,0,0,1-1.638.028l-15.688-1.6a9.862,9.862,0,0,0-8.163,3.06L17.2,15.764a9.777,9.777,0,0,0-2.643,6.7V34.4a24.828,24.828,0,0,0,2.958,11.732l.61,1.132a5.855,5.855,0,0,0,5.137,3.123,4.405,4.405,0,0,0,2.306-.6v1.531a39.761,39.761,0,0,0-12.543,1.844L10.149,40.707a4.912,4.912,0,0,0,1.957-6.356l-1.165-2.442a2,2,0,0,1-.194-.841l-.023-2.705a4.911,4.911,0,1,0-9.289,2.264L2.589,32.9a2,2,0,0,1,.216.935l-.042,2.55a4.914,4.914,0,0,0,4.543,4.979l2.949,12.78A39.29,39.29,0,0,0,.539,59.5a1.459,1.459,0,0,0,1.839,2.265,36.622,36.622,0,0,1,8.54-4.745l.356,1.543a1.459,1.459,0,0,0,2.843-.656l-.435-1.888a37.065,37.065,0,0,1,9.471-1.755q1.209-.061,2.414-.036v3.307a1.459,1.459,0,1,0,2.918,0V54.412A35.078,35.078,0,0,1,36.5,56.23q.63.222,1.254.436l-.453,2.8a1.458,1.458,0,0,0,1.207,1.673,1.435,1.435,0,0,0,.234.019,1.46,1.46,0,0,0,1.439-1.226L40.56,57.6a97.662,97.662,0,0,0,29.895,5.137h.332c.725,0,1.46-.012,2.185-.026a1.459,1.459,0,1,0-.057-2.917c-.71.014-1.43.022-2.14.025-9.2.045-18.967-1.641-29.744-5.131l1.641-10.149a4.911,4.911,0,0,0,4.538-5.182l-.157-2.7a2.009,2.009,0,0,1,.138-.852l.032-.081A52.961,52.961,0,0,0,62.77,30.674v.139a1.459,1.459,0,0,0,1.459,1.459h8.88a1.459,1.459,0,0,0,1.459-1.459V1.959A1.459,1.459,0,0,0,73.11.5ZM5.681,36.433l.042-2.55a4.927,4.927,0,0,0-.531-2.3L4.037,29.306a1.993,1.993,0,0,1,1.329-2.844,2.005,2.005,0,0,1,.452-.052,1.994,1.994,0,0,1,1.99,1.977l.023,2.705a4.941,4.941,0,0,0,.478,2.073l1.165,2.442a1.993,1.993,0,0,1-1.351,2.8h0a1.993,1.993,0,0,1-2.441-1.975Zm20.025-6.557L25.092,27.4a1.993,1.993,0,1,1,3.881-.048l-.586,2.641a4.931,4.931,0,0,0,0,2.127l.026.12-1.969,1.485c-.441.333-.909.686-1.368,1.075.006-.029.009-.058.016-.087l.614-2.475A4.927,4.927,0,0,0,25.706,29.876Zm11.766,23.6a37.635,37.635,0,0,0-8.987-1.99V47.562l.091,0a5.169,5.169,0,0,0,.616-.036,8.108,8.108,0,0,0,3.469-1.441A50.43,50.43,0,0,0,36.8,42.946c.393-.32.792-.646,1.194-.967l.014.028a4.9,4.9,0,0,0,1.816,1.867l-1.595,9.868C37.976,53.655,37.724,53.568,37.471,53.479ZM44.14,36.82l.157,2.7a1.993,1.993,0,1,1-3.823-.667l1-2.346a4.924,4.924,0,0,0,.377-2.333l-.211-2.542a1.993,1.993,0,1,1,3.838.572l-1,2.514A4.94,4.94,0,0,0,44.14,36.82Zm6.524-4.769L56.7,27.3a1.459,1.459,0,1,0-1.8-2.293l-6.54,5.146a4.911,4.911,0,0,0-9.625,1.723l.211,2.541a2,2,0,0,1-.153.947l-1,2.346a4.965,4.965,0,0,0-.3.965c-.872.654-1.719,1.342-2.539,2.011a47.514,47.514,0,0,1-3.894,2.964,5.517,5.517,0,0,1-2.21.981,2.791,2.791,0,0,1-1.26-.157l-.017-.007a3.7,3.7,0,0,1-1.457-.989,4.365,4.365,0,0,1-1.109-3.158c.116-1.817,1.285-2.823,3.194-4.263L38.354,28.4a11.7,11.7,0,0,0,4.63-9.292V16.89a1.459,1.459,0,1,0-2.918,0v2.216A8.766,8.766,0,0,1,36.6,26.068L31.372,30.01l.449-2.025a4.889,4.889,0,0,0-.964-4.137q-.087-.108-.179-.21A11.155,11.155,0,0,1,36.316,21.3a1.459,1.459,0,1,0-.319-2.9,14.147,14.147,0,0,0-8.008,3.712,4.969,4.969,0,0,0-.963-.1A4.911,4.911,0,0,0,22.26,28.1l.614,2.475a2.011,2.011,0,0,1,0,.959l-.614,2.475a4.916,4.916,0,0,0,.5,3.6,6.614,6.614,0,0,0-.662,2.524,7.239,7.239,0,0,0,1.725,5.149V47.4a1.953,1.953,0,0,1-.558.07,2.942,2.942,0,0,1-2.568-1.588l-.61-1.132A21.9,21.9,0,0,1,17.474,34.4V22.463a6.868,6.868,0,0,1,1.858-4.706l7.98-8.537A6.929,6.929,0,0,1,33.046,7.07l15.688,1.6a9.831,9.831,0,0,0,2.331-.04l11.7-1.607v3.3l-5.962.953a1.459,1.459,0,1,0,.46,2.881l5.5-.879v14.1A50.376,50.376,0,0,1,50.664,32.051Zm20.987-2.7H65.688V3.417h5.963Zm0,0" transform="translate(0)"/></g></svg>