<svg xmlns="http://www.w3.org/2000/svg" width="74.68" height="74.681" viewBox="0 0 74.68 74.681"><g transform="translate(0 13.593)"><path d="M49.085,145.717a7.13,7.13,0,0,0-4.8-6.583l-12.246-4.19v-4.362c3.235-2.328,4.579-6.085,4.579-10.176h1.1a4.146,4.146,0,0,0,4.141-4.142V113.98a4.125,4.125,0,0,0-.953-2.64c.158.1.047-5.17.079-5.292A12.871,12.871,0,0,0,28.128,93.19H21.16A12.871,12.871,0,0,0,8.3,106.048s.009,5.049.027,5.128a4.127,4.127,0,0,0-1.1,2.8v2.284a4.146,4.146,0,0,0,4.141,4.142h1.1a11.5,11.5,0,0,0,4.58,10.177v4.361l-12.247,4.19A7.111,7.111,0,0,0,0,145.863v7.322A1.094,1.094,0,0,0,1.1,154.278h46.9a1.1,1.1,0,0,0,1.094-1.094l0-7.446c0-.007,0-.014,0-.021Zm-12.994-7.072L25.945,148.41a2,2,0,0,1-2.8,0L13,138.645l4.187-1.433c1.588,8.077,13.131,8.072,14.716,0Zm-6.245-6.8v3.982c-.136,6.981-10.467,6.977-10.6,0v-3.981C21.886,133.246,27.118,133.246,29.847,131.842Zm9.823-15.578a1.956,1.956,0,0,1-1.953,1.954h-1.1v-6.192h1.1a1.956,1.956,0,0,1,1.953,1.954ZM10.492,106.048a10.681,10.681,0,0,1,10.667-10.67h6.969A10.681,10.681,0,0,1,38.8,106.048v3.79s-3.173-.013-3.207-.015c-1.4-.24-8.391-2.133-10.09-4.832a1.1,1.1,0,0,0-1.709,0c-1.635,2.695-9.178,4.778-10.28,4.847H10.492Zm.884,12.17a1.956,1.956,0,0,1-1.953-1.954V113.98a1.956,1.956,0,0,1,1.953-1.954h1.1v6.192h-1.1Zm3.29,3.315v-9.668c2.854-.781,7.567-2.066,9.977-4.557,2.388,2.467,6.9,3.692,9.782,4.513v9.713c-.125,12.149-19.638,12.143-19.76,0ZM2.192,152.09v-6.228A4.923,4.923,0,0,1,5.519,141.2l5.154-1.763,10.953,10.541a4.182,4.182,0,0,0,5.837,0l10.956-10.543,5.153,1.763A4.934,4.934,0,0,1,46.9,145.75l0,6.34Z" transform="translate(-0.004 -93.19)"/><path d="M143.051,286.432a1.094,1.094,0,0,0-1.094,1.094,3.837,3.837,0,1,0,7.674,0,1.094,1.094,0,0,0-2.188,0,1.649,1.649,0,1,1-3.3,0A1.094,1.094,0,0,0,143.051,286.432Z" transform="translate(-121.252 -258.245)"/><path d="M120.2,237.613a1.094,1.094,0,0,0-1.661-1.425,1.659,1.659,0,0,1-2.5,0,1.094,1.094,0,0,0-1.66,1.425A3.861,3.861,0,0,0,120.2,237.613Z" transform="translate(-97.465 -215.004)"/><path d="M181.889,238.953a3.835,3.835,0,0,0,2.913-1.339,1.094,1.094,0,0,0-1.661-1.425,1.659,1.659,0,0,1-2.5,0,1.094,1.094,0,1,0-1.66,1.425A3.834,3.834,0,0,0,181.889,238.953Z" transform="translate(-152.646 -215.005)"/></g><path d="M285.773,38.105A12.486,12.486,0,0,0,271.835,32.1l-.812-1.407a3.375,3.375,0,0,0-3.552-1.618L251.008.548a1.094,1.094,0,1,0-1.895,1.094l16.463,28.523a3.375,3.375,0,0,0-.373,3.887l.817,1.416a12.421,12.421,0,1,0,19.754,2.638Zm-16.645-6.322.612,1.06a12.641,12.641,0,0,0-2.03,1.175l-.612-1.061a1.173,1.173,0,0,1,2.031-1.174ZM280.032,53A10.233,10.233,0,0,1,269.8,35.273a10.386,10.386,0,0,1,1.343-.652,10.171,10.171,0,0,0-3.054,13.455,7.889,7.889,0,0,0,13.668-7.881,5.624,5.624,0,1,0-9.745,5.616,1.094,1.094,0,0,0,1.895-1.094,3.436,3.436,0,0,1,5.946-3.445,5.7,5.7,0,1,1-9.874,5.7,7.962,7.962,0,0,1,13.8-7.955A10.247,10.247,0,0,1,280.032,53Z" transform="translate(-212.652 0)"/></svg>