<svg xmlns="http://www.w3.org/2000/svg" width="416.152" height="269.841" viewBox="0 0 416.152 269.841"><path d="M176.043,548.891c2.062-21.051,14.527-42.064,34.361-49.414a97.454,97.454,0,0,0,1.749,66.886c3.292,8.238,7.811,17.057,5.137,25.515-1.664,5.263-5.962,9.369-10.818,11.992s-10.287,3.955-15.65,5.262l-1.039.906C180.716,590.927,173.981,569.942,176.043,548.891Z" transform="translate(-162.854 -341.789)" fill="#f0f0f0"/><path d="M226.578,499.349a83.3,83.3,0,0,0-19.479,47.4,35.871,35.871,0,0,0,.7,11.217,20.573,20.573,0,0,0,5.364,9.406c2.372,2.473,5.084,4.728,6.813,7.734a12.6,12.6,0,0,1,.883,10.264c-1.347,4.215-4.129,7.695-6.968,11-3.152,3.673-6.484,7.439-7.739,12.232-.152.581-1.044.311-.893-.269,2.184-8.34,10.1-13.251,13.734-20.806,1.7-3.525,2.343-7.584.571-11.212-1.55-3.173-4.344-5.5-6.767-7.984a21.953,21.953,0,0,1-5.587-9,33.162,33.162,0,0,1-1.129-11.149,80.813,80.813,0,0,1,5.26-24.7,84.775,84.775,0,0,1,14.6-24.818c.387-.457,1.019.229.635.683Z" transform="translate(-178.819 -341.27)" fill="#fff"/><path d="M197.927,575.495a12.5,12.5,0,0,1-9.851-12.839.467.467,0,0,1,.932.022A11.572,11.572,0,0,0,198.2,574.6c.587.124.315,1.015-.269.893Z" transform="translate(-169.543 -375.659)" fill="#fff"/><path d="M219.22,628.8a24.087,24.087,0,0,0,10.391-14.148c.154-.58,1.047-.31.893.269a25.054,25.054,0,0,1-10.843,14.7C219.152,629.942,218.714,629.119,219.22,628.8Z" transform="translate(-186.243 -403.791)" fill="#fff"/><path d="M227.148,534.3a7.074,7.074,0,0,0,6.693-.515c.5-.326.942.5.441.821a7.927,7.927,0,0,1-7.4.586.482.482,0,0,1-.312-.581.469.469,0,0,1,.581-.312Z" transform="translate(-190.322 -360.268)" fill="#fff"/><path d="M288.433,575.264c-.309.213-.618.425-.928.646a93.152,93.152,0,0,0-11.665,9.607c-.284.267-.568.542-.845.817a98.214,98.214,0,0,0-20.561,29.744,95.372,95.372,0,0,0-4.87,13.649c-1.76,6.445-3.156,13.572-6.835,18.9a16.374,16.374,0,0,1-1.233,1.606l-34.473.9c-.079-.037-.159-.067-.239-.1l-1.375.1c.049-.245.1-.5.154-.744.028-.142.063-.285.091-.427.021-.095.042-.19.056-.277.007-.032.014-.063.021-.087.013-.087.035-.166.049-.245q.464-2.125.959-4.252c0-.008,0-.008.007-.016a140.241,140.241,0,0,1,10.99-31.281c.15-.3.3-.6.465-.894A91.01,91.01,0,0,1,226.05,600.3a80.447,80.447,0,0,1,5.2-6.267,66.906,66.906,0,0,1,16.41-12.974c12.194-6.85,26.443-9.725,39.761-6.082C287.759,575.069,288.092,575.163,288.433,575.264Z" transform="translate(-178.908 -381.689)" fill="#f0f0f0"/><path d="M288.528,577.318a83.3,83.3,0,0,0-44.093,26.121,35.872,35.872,0,0,0-6.194,9.378,20.573,20.573,0,0,0-1.38,10.739c.4,3.4,1.213,6.836.783,10.277a12.6,12.6,0,0,1-5.475,8.727c-3.614,2.554-7.93,3.658-12.188,4.59-4.728,1.035-9.655,2.036-13.544,5.107-.471.372-1.021-.381-.551-.752,6.765-5.344,16.04-4.5,23.493-8.344,3.478-1.793,6.436-4.645,7.206-8.609.673-3.466-.157-7.008-.6-10.449a21.954,21.954,0,0,1,.958-10.551,33.161,33.161,0,0,1,5.811-9.581,80.814,80.814,0,0,1,19.073-16.558,84.772,84.772,0,0,1,26.6-11.024c.584-.132.676.8.1.927Z" transform="translate(-179.07 -383.303)" fill="#fff"/><path d="M293.869,606.344a12.5,12.5,0,0,1-.135-16.182c.386-.459,1.118.119.731.579a11.572,11.572,0,0,0,.157,15.052c.394.452-.36,1-.752.551Z" transform="translate(-225.021 -390.654)" fill="#fff"/><path d="M271.853,669.184a24.087,24.087,0,0,0,16.815-5.04c.472-.37,1.022.382.551.752a25.056,25.056,0,0,1-17.508,5.209C271.111,670.055,271.257,669.134,271.853,669.184Z" transform="translate(-214.493 -430.629)" fill="#fff"/><path d="M344.869,591.57a7.074,7.074,0,0,0,5.654,3.618c.6.043.453.964-.143.921a7.927,7.927,0,0,1-6.263-3.989.482.482,0,0,1,.1-.651A.469.469,0,0,1,344.869,591.57Z" transform="translate(-253.743 -391.402)" fill="#fff"/><path d="M820.489,175.652c-.515-1.52-6.969-6.686-3.014-7.554l3.244,4.325,14.912-14.912,1.5,1.5Z" transform="translate(-508.637 -157.182)" fill="#29ab87"/><path d="M820.489,285.846c-.515-1.52-6.969-6.686-3.014-7.554l3.244,4.325L835.631,267.7l1.5,1.5Z" transform="translate(-508.637 -216.669)" fill="#29ab87"/><path d="M820.489,397.614c-.515-1.52-6.969-6.686-3.014-7.554l3.244,4.325,14.912-14.912,1.5,1.5Z" transform="translate(-508.637 -277.006)" fill="#29ab87"/><circle cx="4.602" cy="4.602" r="4.602" transform="translate(293.519 69.824)" fill="#3f3d56"/><circle cx="4.602" cy="4.602" r="4.602" transform="translate(293.519 19.666)" fill="#3f3d56"/><rect width="74.086" height="0.92" transform="translate(342.066 13.684)" fill="#3f3d56"/><circle cx="4.602" cy="4.602" r="4.602" transform="translate(295.82 123.292)" fill="#3f3d56"/><rect width="74.086" height="0.92" transform="translate(342.066 64.391)" fill="#3f3d56"/><rect width="74.086" height="0.92" transform="translate(342.066 115.822)" fill="#3f3d56"/><path d="M675.968,249.468H652.96V226h15.646v.92H653.88v21.628h21.167V237.964h.92Z" transform="translate(-352.493 -122.004)" fill="#3f3d56"/><path d="M675.968,137.468H652.96V114h15.646v.92H653.88v21.628h21.167V125.964h.92Z" transform="translate(-352.493 -61.542)" fill="#3f3d56"/><path d="M675.968,23.468H652.96V0h15.646V.92H653.88V22.548h21.167V11.964h.92Z" transform="translate(-352.493)" fill="#3f3d56"/><path d="M521.545,325.744s-6.149,25.963,1.366,25.963,25.28-29.379,25.28-29.379l-6.149-7.516L531,330.136l-.578-7.808Z" transform="translate(-348.292 -242.1)" fill="#a0616a"/><circle cx="5.982" cy="5.982" r="5.982" transform="translate(192.278 69.392)" fill="#a0616a"/><path d="M365.173,530.015h7.962l3.788-30.714H365.171Z" transform="translate(-197.134 -269.542)" fill="#a0616a"/><path d="M512.384,725.371H536.87v-.31a9.531,9.531,0,0,0-9.53-9.531h0l-4.473-3.393-8.345,3.394h-2.138Z" transform="translate(-344.625 -456.591)" fill="#1a1a1a"/><path d="M179.038,512.218l7.125,3.555,17.105-25.79-10.516-5.248Z" transform="translate(-96.652 -261.679)" fill="#a0616a"/><path d="M318.25,706.806l21.91,10.934.138-.277a9.531,9.531,0,0,0-4.272-12.784h0l-2.487-5.034-8.982-.69L322.644,698Z" transform="translate(-239.825 -448.96)" fill="#1a1a1a"/><rect width="262.223" height="1.031" transform="translate(0 268.81)" fill="#ccc"/><path d="M364.706,436.117s-3.182,38.262-3.865,46.46a58.308,58.308,0,0,1-3.416,15.031,14.133,14.133,0,0,0-1.367,5.466l-15.487,28.145s-4.732,3.479-4.049,6.211-2.853,4.372-2.853,4.372l16.309,3.143a2.116,2.116,0,0,1,1.366-2.733c2.05-.683,3.681-6.609,3.681-6.609l22.9-37.313,16.4-34.162s9.565,30.745,11.615,34.162c0,0,7.516,38.261,8.882,41.677s2.05,3.416,1.366,4.783-.683,2.733,0,3.416,13.665,0,13.665,0l-3.416-48.51-6.149-58.075-31.429-9.565Z" transform="translate(-248.148 -305.372)" fill="#1a1a1a"/><circle cx="14.348" cy="14.348" r="14.348" transform="translate(132.98 10.709)" fill="#a0616a"/><path d="M457.241,267.094l-17.08-10.348s-.473-6.426-5.34-6.728c-2.443-.152-6.11-.384-11.612-.739-1.163-.075-1.948,6.287-3.28,6.2L401.9,260.262l2.733,46.46s-4.1,18.447-2.733,21.863-3.416,4.783-2.05,5.466,0,5.466,0,5.466,26.646,13.665,56.025,3.416l-2.733-8.882a7.169,7.169,0,0,0-1.367-6.832s2.733-4.1-.683-7.516c0,0,1.366-6.149-2.05-8.882l-.683-9.565,2.05-4.783Z" transform="translate(-283.741 -206.722)" fill="#e6e6e6"/><path d="M437.542,198.207l-.4-.932c-.052-.12-5.126-12.116-.628-19.515,2.082-3.425,5.868-5.359,11.252-5.748,8.424-.609,14.19,1.389,17.141,5.935a5.1,5.1,0,0,1-4.3,7.851H460.5l-1.548-2.01-.09.2a3.2,3.2,0,0,1-3.355,1.731c-.256-.018-.483.2-.666.677a1.2,1.2,0,0,1-.9.835c-1.114.217-2.7-1.186-3.412-1.885a1.14,1.14,0,0,1-.532.783c-.749.432-1.914-.132-2.249-.312-2.665.566-4.39.415-5.129-.45-.5,3.545-1.576,9.926-2.866,10.279a.645.645,0,0,1-.7-.308c-.31-.4-.588-.6-.761-.548-.419.133-.667,1.515-.7,2.406Z" transform="translate(-302.664 -164.954)" fill="#2f2e41"/><path d="M501.315,288.181l6.816-1.107a33.276,33.276,0,0,1,9.582,17.5c2.05,10.932,2.733,12.981,2.733,12.981l-16.4,4.1-8.882-17.081Z" transform="translate(-335.331 -227.126)" fill="#e6e6e6"/><rect width="53.56" height="107.821" transform="translate(131.529 128.669) rotate(-85.49)" fill="#fff"/><path d="M459.261,327.035a12.6,12.6,0,0,0-7.246-1.987,10.881,10.881,0,0,0,11.475,8.2A12.611,12.611,0,0,0,459.261,327.035Z" transform="translate(-312.036 -247.624)" fill="#29ab87"/><path d="M465.135,401.593l-17.259-1.362a3.9,3.9,0,0,0-.613,7.767h0l17.259,1.361a3.9,3.9,0,1,0,.613-7.767Z" transform="translate(-307.533 -288.206)" fill="#29ab87"/><path d="M538.416,318.54l-96.767-7.634a8.6,8.6,0,0,0-9.245,7.9l-3.722,47.144a8.6,8.6,0,0,0,7.9,9.25l96.767,7.634a8.6,8.6,0,0,0,9.245-7.9l3.536-44.808.071-.915.113-1.425A8.6,8.6,0,0,0,538.416,318.54Zm-2.857,41.018-.613,7.767a5.207,5.207,0,0,1-5.587,4.768l-12.946-1.02a5.207,5.207,0,0,1-4.768-5.587l.613-7.767a5.209,5.209,0,0,1,5.587-4.768l12.941,1.021A5.213,5.213,0,0,1,535.559,359.557Zm-100.837-4.05a4.761,4.761,0,0,1,5.114-4.367L457.1,352.5a4.759,4.759,0,1,1-.74,9.489l-.009,0-17.259-1.362a4.755,4.755,0,0,1-4.365-5.124Zm3.695-38.415-.118-.483.5-.046a11.868,11.868,0,0,1,13.076,9.339l.114.484-.5.05a13.079,13.079,0,0,1-2.112-.014,12.488,12.488,0,0,1-6.248-2.11A13.56,13.56,0,0,1,438.417,317.092Z" transform="translate(-299.425 -239.976)" fill="#29ab87"/><path d="M620.925,427.334l-5.609-.443a1.515,1.515,0,0,0-.238,3.02l5.609.442a1.515,1.515,0,1,0,.238-3.02Z" transform="translate(-399.31 -302.602)" fill="#1a1a1a"/><path d="M643.429,429.109l-5.609-.442a1.515,1.515,0,0,0-.238,3.02l5.609.443a1.515,1.515,0,0,0,.238-3.02Z" transform="translate(-411.459 -303.56)" fill="#1a1a1a"/><path d="M621.591,418.9l-5.609-.443a1.515,1.515,0,0,0-.238,3.02l5.609.443a1.515,1.515,0,0,0,.238-3.02Z" transform="translate(-399.669 -298.047)" fill="#1a1a1a"/><path d="M644.095,420.67l-5.609-.443a1.515,1.515,0,0,0-.238,3.02l5.609.443a1.515,1.515,0,1,0,.238-3.02Z" transform="translate(-411.818 -299.005)" fill="#1a1a1a"/><path d="M622.256,410.456l-5.609-.443a1.515,1.515,0,0,0-.238,3.02l5.609.443a1.515,1.515,0,0,0,.238-3.02Z" transform="translate(-400.029 -293.491)" fill="#1a1a1a"/><path d="M644.761,412.231l-5.609-.442a1.515,1.515,0,0,0-.238,3.02l5.609.442a1.515,1.515,0,0,0,.238-3.02Z" transform="translate(-412.178 -294.449)" fill="#1a1a1a"/><rect width="0.921" height="113.942" transform="translate(131.467 94.617) rotate(-85.509)" fill="#fff"/><path d="M482.143,189.671l-.071.916-3.953-.31L436,186.968l.076-.917,42.115,3.309Z" transform="translate(-235.369 -100.438)" fill="#3f3d56"/><path d="M379.545,316.744s-6.149,25.963,1.366,25.963,25.28-29.379,25.28-29.379l-6.149-7.516L389,321.136l-.578-7.808Z" transform="translate(-271.635 -237.242)" fill="#a0616a"/><circle cx="5.982" cy="5.982" r="5.982" transform="translate(126.935 65.251)" fill="#a0616a"/><path d="M395.373,277.247l-4.1-4.1s-8.2,4.783-8.882,9.565-4.1,19.814-4.1,19.814l12.64,1.025,4.1-6.149Z" transform="translate(-272.238 -219.608)" fill="#e6e6e6"/></svg>