<svg xmlns="http://www.w3.org/2000/svg" width="27.111" height="22.624" viewBox="0 0 27.111 22.624"><path d="M218.111,5230a12.373,12.373,0,0,1-3.584,1.746,5.109,5.109,0,0,0-5.682-1.427,5.119,5.119,0,0,0-3.29,4.851v1.142a12.106,12.106,0,0,1-5.786-1.29,12.268,12.268,0,0,1-4.487-3.881s-4.566,10.272,5.707,14.838a13.263,13.263,0,0,1-7.99,2.283c10.273,5.707,22.828,0,22.828-13.126a5.126,5.126,0,0,0-.091-.947,8.842,8.842,0,0,0,2.374-4.189Z" transform="translate(-192 -5228.983)" fill="none" stroke="#fff" stroke-linecap="round" stroke-linejoin="round" stroke-width="2"/></svg>