<svg xmlns="http://www.w3.org/2000/svg" width="64" height="64" viewBox="0 0 64 64"><g transform="translate(-20 -161.008)"><path d="M32,0A32,32,0,1,1,0,32,32,32,0,0,1,32,0Z" transform="translate(20 161.008)" fill="#29ab87"/><g transform="translate(39.042 171.401)"><path d="M477.869,630.5c1.55,0,3.1-.015,4.65,0a8.187,8.187,0,0,1,8.149,6.741,3.966,3.966,0,0,1-.512,3.394,9.391,9.391,0,0,1-1.918,1.71,18.066,18.066,0,0,1-22.084-1,3.654,3.654,0,0,1-1.211-3.462,8.2,8.2,0,0,1,8.275-7.378C474.769,630.489,476.319,630.5,477.869,630.5Z" transform="translate(-464.902 -610.319)" fill="#fff"/><path d="M531.453,428.635a8.125,8.125,0,1,1-8.129-8.1A8.158,8.158,0,0,1,531.453,428.635Z" transform="translate(-510.369 -420.54)" fill="#fff"/></g></g></svg>